<svg width="28" height="28" fill="none" xmlns="http://www.w3.org/2000/svg"><circle cx="14" cy="14" r="14" fill="#fff" fill-opacity=".51"/><path d="M15.692 10.443a.598.598 0 0 0-.703.476.604.604 0 0 0 .474.707c.976.19 1.73.946 1.92 1.925a.601.601 0 0 0 .705.477.605.605 0 0 0 .474-.708 3.622 3.622 0 0 0-2.87-2.877z" fill="#fff"/><path d="M15.65 8.006a.597.597 0 0 0-.664.532.6.6 0 0 0 .53.664 4.838 4.838 0 0 1 4.287 4.298.6.6 0 1 0 1.193-.135 6.031 6.031 0 0 0-5.346-5.36z" fill="#fff"/><path fill-rule="evenodd" clip-rule="evenodd" d="M13.322 15.68c2.792 2.792 3.425-.437 5.203 1.34 1.714 1.713 2.7 2.056.528 4.227-.272.219-2 2.849-8.074-3.223-6.074-6.073-3.446-7.803-3.227-8.075 2.177-2.177 2.514-1.186 4.228.527 1.778 1.778-1.45 2.413 1.342 5.205z" fill="#fff"/></svg>