<svg width="35" height="20" viewBox="0 0 35 20" fill="none" xmlns="http://www.w3.org/2000/svg">
<rect x="5.793" width="29.207" height="19.8608" rx="4.25963" fill="#F24D4D"/>
<path d="M11.0125 15.9436V7.13464H12.7675V15.9436H11.0125ZM11.0125 5.94194V4.0677H12.7675V5.94194H11.0125ZM14.2572 15.9436V9.86081C14.2572 8.05472 14.2572 7.52653 14.2401 7.13464H15.9099C15.944 7.3391 15.9781 7.67987 15.9781 7.93545C16.2336 7.4243 16.6937 6.99833 17.5967 6.99833C18.6701 6.99833 19.4028 7.6458 19.4028 9.31557V15.9436H17.6478V9.63931C17.6478 8.85553 17.3752 8.56588 16.8981 8.56588C16.2677 8.56588 16.0121 8.90665 16.0121 10.0993V15.9436H14.2572ZM22.8049 15.9436H21.0499V8.66811H20.181V7.13464H21.0499V6.26567C21.0499 5.05594 21.5441 3.98251 23.1457 3.98251C23.4183 3.98251 23.6568 3.99955 23.8272 4.05066V5.61821C23.6909 5.60117 23.6057 5.60117 23.5035 5.60117C22.9412 5.60117 22.8049 5.90786 22.8049 6.48718V7.13464H23.8613V8.66811H22.8049V15.9436ZM27.0417 6.99833C28.6433 6.99833 29.5974 7.96953 29.5974 9.84377V13.2344C29.5974 15.1257 28.6603 16.0799 26.9905 16.0799C25.2697 16.0799 24.4177 15.0916 24.4177 13.2344V9.77561C24.4177 7.85026 25.5082 6.99833 27.0417 6.99833ZM27.0076 8.54884C26.4453 8.54884 26.1897 8.95776 26.1897 9.74154V13.3026C26.1897 14.0182 26.3942 14.5294 27.0246 14.5294C27.6039 14.5294 27.8425 14.1034 27.8425 13.2685V9.7245C27.8425 9.04296 27.655 8.54884 27.0076 8.54884Z" fill="white"/>
<path d="M1.68297 12.6336C0.980295 12.2114 0.998177 11.1869 1.71516 10.7894L7.33778 7.67277C8.05476 7.27534 8.93311 7.80311 8.9188 8.62275L8.80661 15.0504C8.7923 15.8701 7.89607 16.3668 7.19339 15.9446L1.68297 12.6336Z" fill="#F24D4D"/>
</svg>
