<svg width="330" height="80" viewBox="0 0 330 80" fill="none" xmlns="http://www.w3.org/2000/svg">
<g clip-path="url(#clip0_1157_672)">
<path d="M0 79.9999H35.5056C63.5955 79.9999 78.4269 65.1685 78.4269 40.6741C78.4269 16.1797 62.9213 1.34827 35.0562 1.34827H0V5.39321C8.53932 6.06737 10.8989 8.20219 10.8989 18.0898V63.2583C10.8989 72.9213 8.76404 75.2808 0 75.955V79.9999ZM31.6854 74.4943C26.9663 74.4943 25.3932 71.91 25.3932 68.0898V6.85389H33.5955C53.3708 6.85389 62.3595 18.764 62.3595 40.6741C62.3595 62.2471 53.3708 74.4943 35.3932 74.4943H31.6854Z" fill="#F4F3EB"/>
<circle cx="95.5251" cy="69.0083" r="10.9917" fill="#F4F3EB"/>
<path d="M177.411 51.1236C172.13 68.3146 167.636 73.7078 155.051 73.7078H147.973C143.254 73.7078 141.681 71.3483 141.681 67.4157V15.9551C141.681 6.85393 144.04 4.94382 153.366 4.04494V0H116.287V4.04494C124.827 4.83146 127.186 6.85393 127.186 16.7416V61.9101C127.186 71.573 125.051 73.8202 116.287 74.6067V78.6517H178.984L181.568 51.1236H177.411Z" fill="#F4F3EB"/>
<path d="M239.574 68.5393C238.675 70.1123 237.327 71.1236 235.416 71.1236C232.72 71.1236 231.372 69.1011 231.372 65.7303V43.3708C231.372 28.764 223.956 21.3483 210.697 21.3483C197.102 21.3483 190.136 29.2135 188.113 37.9775L191.821 39.4382C194.293 33.8202 198.9 30.5618 206.091 30.5618C214.18 30.5618 218.001 34.9438 218.001 42.6966V45.7303L207.327 47.8652C193.506 50.5618 186.652 56.4045 186.652 65.5056C186.652 75.1685 193.282 80 202.383 80C210.36 80 216.091 75.6179 217.776 69.6629H218.563C219.349 76.6292 223.506 79.8876 229.461 79.8876C235.079 79.8876 240.023 76.8539 242.158 70.3371L239.574 68.5393ZM209.124 72.2472C203.843 72.2472 200.697 68.6517 200.697 63.0337C200.697 56.2921 205.304 52.6966 212.832 51.1236L218.001 50.1123V65.1685C216.315 69.8876 213.282 72.2472 209.124 72.2472Z" fill="#F4F3EB"/>
<path d="M282.95 42.1348H283.512C283.624 45.0562 284.186 46.9663 285.534 50.1123L298.455 79.2134H303.736L322.276 32.9213C323.961 28.2022 325.646 26.7416 329.804 26.6292V22.6966H308.568V26.6292C314.298 26.7416 316.208 27.4157 316.208 30.8989C316.208 32.1348 315.871 33.3708 315.309 34.8314L306.208 56.6292C305.085 59.4382 304.41 61.9101 304.298 64.6067H303.736C303.736 61.1236 303.287 58.4269 302.051 55.5056L293.736 35.3932C292.95 33.2584 292.5 31.7977 292.5 30.6741C292.5 27.5281 294.298 26.7416 299.804 26.6292V22.6966H270.927V26.6292C274.41 26.7416 275.309 27.4157 277.332 31.9101L279.579 36.8539L270.927 56.6292C270.028 58.8764 269.467 61.573 269.242 64.382H268.68C268.568 60.3371 268.118 57.9775 266.995 55.1685L258.343 34.7191C257.669 32.9213 257.332 31.573 257.332 30.5618C257.332 27.8652 258.905 26.7416 262.725 26.6292V22.6966H235.197V26.6292C239.242 26.8539 240.253 27.6404 242.163 32.0225L263.399 79.2134H268.68L280.478 50.1123C281.939 46.5168 282.613 44.4944 282.95 42.1348Z" fill="#F4F3EB"/>
</g>
<defs>
<clipPath id="clip0_1157_672">
<rect width="329.804" height="80" fill="white"/>
</clipPath>
</defs>
</svg>
