<svg width="512" height="512" viewBox="0 0 512 512" fill="none" xmlns="http://www.w3.org/2000/svg">
<path d="M77.8251 327.75L437.098 327.75C444.729 327.75 450.916 321.563 450.916 313.932V120.477C450.916 112.846 444.729 106.659 437.098 106.659L77.8251 106.659C70.1935 106.659 64.0069 112.846 64.0069 120.477V313.932C64.0069 321.563 70.1935 327.75 77.8251 327.75Z" stroke="#F54E38" stroke-width="25" stroke-linejoin="round"/>
<path d="M91.625 369.208H423.261M119.261 410.663H395.625" stroke="#F54E38" stroke-width="25" stroke-linecap="round" stroke-linejoin="round"/>
<path d="M257.466 286.307C295.624 286.307 326.557 255.374 326.557 217.216C326.557 179.058 295.624 148.125 257.466 148.125C219.308 148.125 188.375 179.058 188.375 217.216C188.375 255.374 219.308 286.307 257.466 286.307Z" stroke="#F54E38" stroke-width="25" stroke-linecap="round" stroke-linejoin="round"/>
<path d="M450.909 175.758C432.585 175.758 415.012 168.479 402.054 155.522C389.097 142.565 381.818 124.991 381.818 106.667M64 175.758C73.0731 175.758 82.0575 173.971 90.4399 170.499C98.8224 167.027 106.439 161.937 112.855 155.522C119.27 149.106 124.36 141.489 127.832 133.107C131.304 124.724 133.091 115.74 133.091 106.667M450.909 258.667C432.585 258.667 415.012 265.946 402.054 278.903C389.097 291.86 381.818 309.434 381.818 327.758M64 258.667C73.0731 258.667 82.0575 260.454 90.4399 263.926C98.8224 267.398 106.439 272.488 112.855 278.903C119.27 285.319 124.36 292.935 127.832 301.318C131.304 309.7 133.091 318.685 133.091 327.758" stroke="#F54E38" stroke-width="25" stroke-linecap="round" stroke-linejoin="round"/>
</svg>
