<svg width="25" height="24" viewBox="0 0 25 24" fill="none" xmlns="http://www.w3.org/2000/svg">
<mask id="mask0_3146_3242" style="mask-type:luminance" maskUnits="userSpaceOnUse" x="0" y="0" width="25" height="24">
<path d="M24.5 0H0.5V24H24.5V0Z" fill="white"/>
</mask>
<g mask="url(#mask0_3146_3242)">
<path fill-rule="evenodd" clip-rule="evenodd" d="M12.5 2C11.5335 2 10.75 2.7835 10.75 3.75V4.25C10.75 5.2165 11.5335 6 12.5 6C13.4665 6 14.25 5.2165 14.25 4.25V3.75C14.25 2.7835 13.4665 2 12.5 2ZM3.5 7.75C3.5 7.33579 3.83579 7 4.25 7H10.75H14.25H20.75C21.1642 7 21.5 7.33579 21.5 7.75C21.5 8.16421 21.1642 8.5 20.75 8.5H15.5C15.2239 8.5 15 8.72386 15 9V12.75V14.5V15.25V21.25C15 21.6642 14.6642 22 14.25 22C13.8358 22 13.5 21.6642 13.5 21.25V15.25V14.5C13.5 13.9477 13.0523 13.5 12.5 13.5C11.9477 13.5 11.5 13.9477 11.5 14.5V15.25V21.25C11.5 21.6642 11.1642 22 10.75 22C10.3358 22 10 21.6642 10 21.25V15.25V14.5V12.75V9C10 8.72386 9.77614 8.5 9.5 8.5H4.25C3.83579 8.5 3.5 8.16421 3.5 7.75Z" fill="#F54E38"/>
<path d="M10.75 21.25V14.5C10.75 13.5335 11.5335 12.75 12.5 12.75C13.4665 12.75 14.25 13.5335 14.25 14.5V21.25" stroke="#F54E38" stroke-width="1.5" stroke-linecap="round" stroke-linejoin="round"/>
<path d="M14.25 7.75V12.75H10.75V7.75H14.25Z" fill="#F54E38" stroke="#F54E38" stroke-width="1.5" stroke-linecap="round" stroke-linejoin="round"/>
<path d="M10.75 15.25V12.75" stroke="#F54E38" stroke-width="1.5" stroke-linecap="round" stroke-linejoin="round"/>
<path d="M14.25 15.25V12.75" stroke="#F54E38" stroke-width="1.5" stroke-linecap="round" stroke-linejoin="round"/>
<path d="M20.75 7.75H4.25" stroke="#F54E38" stroke-width="1.5" stroke-linecap="round" stroke-linejoin="round"/>
<path d="M14.25 3.75C14.25 2.7835 13.4665 2 12.5 2C11.5335 2 10.75 2.7835 10.75 3.75V4.25C10.75 5.2165 11.5335 6 12.5 6C13.4665 6 14.25 5.2165 14.25 4.25V3.75Z" fill="#F54E38"/>
</g>
</svg>
