<svg width="24" height="24" viewBox="0 0 24 24" fill="none" xmlns="http://www.w3.org/2000/svg">
<g clip-path="url(#clip0_3146_3297)">
<mask id="mask0_3146_3297" style="mask-type:luminance" maskUnits="userSpaceOnUse" x="0" y="0" width="24" height="24">
<path d="M24 0H0V24H24V0Z" fill="white"/>
</mask>
<g mask="url(#mask0_3146_3297)">
<path d="M12 21.25C17.1086 21.25 21.25 17.1086 21.25 12C21.25 6.89137 17.1086 2.75 12 2.75C6.89137 2.75 2.75 6.89137 2.75 12C2.75 17.1086 6.89137 21.25 12 21.25Z" stroke="#F54E38" stroke-width="1.5" stroke-miterlimit="10" stroke-linecap="round"/>
<path d="M11.9983 13.7502C11.9983 12.8102 12.5283 12.0002 13.2983 11.5102C14.1883 10.9502 14.7083 9.8402 14.4083 8.6402C14.1883 7.7802 13.4983 7.0702 12.6583 6.8502C10.9883 6.4102 9.48828 7.6902 9.48828 9.3302" stroke="#F54E38" stroke-width="1.5" stroke-linecap="round" stroke-linejoin="round"/>
<path d="M12 18C12.5523 18 13 17.5523 13 17C13 16.4477 12.5523 16 12 16C11.4477 16 11 16.4477 11 17C11 17.5523 11.4477 18 12 18Z" fill="#F54E38"/>
</g>
</g>
<defs>
<clipPath id="clip0_3146_3297">
<rect width="24" height="24" fill="white"/>
</clipPath>
</defs>
</svg>
