<svg width="25" height="24" viewBox="0 0 25 24" fill="none" xmlns="http://www.w3.org/2000/svg">
<mask id="mask0_3146_3263" style="mask-type:luminance" maskUnits="userSpaceOnUse" x="0" y="0" width="25" height="24">
<path d="M24.5 0H0.5V24H24.5V0Z" fill="white"/>
</mask>
<g mask="url(#mask0_3146_3263)">
<path d="M12.25 21.5C17.3586 21.5 21.5 17.3586 21.5 12.25C21.5 7.14137 17.3586 3 12.25 3C7.14137 3 3 7.14137 3 12.25C3 17.3586 7.14137 21.5 12.25 21.5Z" stroke="#F54E38" stroke-width="1.5" stroke-miterlimit="10" stroke-linecap="round"/>
<path d="M12.25 11.5V16.5" stroke="#F54E38" stroke-width="1.5" stroke-linecap="round" stroke-linejoin="round"/>
<path d="M12.25 9.25C12.8023 9.25 13.25 8.80228 13.25 8.25C13.25 7.69772 12.8023 7.25 12.25 7.25C11.6977 7.25 11.25 7.69772 11.25 8.25C11.25 8.80228 11.6977 9.25 12.25 9.25Z" fill="#F54E38"/>
</g>
</svg>
