<?xml version="1.0" encoding="UTF-8"?>
<svg xmlns="http://www.w3.org/2000/svg" xmlns:xlink="http://www.w3.org/1999/xlink" width="147px" height="147px" viewBox="0 0 147 147" version="1.1">
<defs>
<clipPath id="clip1">
  <path d="M 2.40625 55.730469 L 39.984375 55.730469 L 39.984375 93.363281 L 2.40625 93.363281 Z M 2.40625 55.730469 "/>
</clipPath>
<clipPath id="clip2">
  <path d="M 120.5 55.730469 L 144.019531 55.730469 L 144.019531 85 L 120.5 85 Z M 120.5 55.730469 "/>
</clipPath>
<clipPath id="clip3">
  <path d="M 129.359375 86 L 135 86 L 135 86.601562 L 129.359375 86.601562 Z M 129.359375 86 "/>
</clipPath>
</defs>
<g id="surface1">
<g clip-path="url(#clip1)" clip-rule="nonzero">
<path style=" stroke:none;fill-rule:nonzero;fill:rgb(36.078432%,88.235295%,90.196079%);fill-opacity:1;" d="M 39.976562 74.515625 C 39.976562 75.128906 39.945312 75.742188 39.882812 76.355469 C 39.824219 76.96875 39.734375 77.578125 39.613281 78.179688 C 39.492188 78.78125 39.34375 79.378906 39.167969 79.96875 C 38.988281 80.554688 38.78125 81.136719 38.542969 81.703125 C 38.308594 82.269531 38.046875 82.828125 37.757812 83.367188 C 37.464844 83.914062 37.152344 84.4375 36.808594 84.949219 C 36.464844 85.460938 36.101562 85.957031 35.710938 86.429688 C 35.320312 86.90625 34.90625 87.363281 34.472656 87.796875 C 34.039062 88.230469 33.582031 88.644531 33.105469 89.035156 C 32.632812 89.425781 32.136719 89.789062 31.625 90.132812 C 31.113281 90.476562 30.589844 90.789062 30.046875 91.082031 C 29.503906 91.371094 28.949219 91.632812 28.378906 91.867188 C 27.8125 92.105469 27.230469 92.3125 26.644531 92.492188 C 26.054688 92.667969 25.457031 92.816406 24.855469 92.9375 C 24.25 93.058594 23.644531 93.148438 23.03125 93.207031 C 22.421875 93.269531 21.804688 93.300781 21.191406 93.300781 C 20.574219 93.300781 19.964844 93.269531 19.351562 93.207031 C 18.738281 93.148438 18.128906 93.058594 17.527344 92.9375 C 16.921875 92.816406 16.328125 92.667969 15.738281 92.492188 C 15.148438 92.3125 14.570312 92.105469 14.003906 91.867188 C 13.433594 91.632812 12.878906 91.371094 12.335938 91.082031 C 11.792969 90.789062 11.265625 90.476562 10.753906 90.132812 C 10.242188 89.789062 9.75 89.425781 9.273438 89.035156 C 8.796875 88.644531 8.34375 88.230469 7.910156 87.796875 C 7.472656 87.363281 7.0625 86.90625 6.671875 86.429688 C 6.28125 85.957031 5.914062 85.460938 5.570312 84.949219 C 5.230469 84.4375 4.914062 83.914062 4.625 83.367188 C 4.335938 82.828125 4.074219 82.269531 3.835938 81.703125 C 3.601562 81.136719 3.394531 80.554688 3.214844 79.96875 C 3.039062 79.378906 2.886719 78.78125 2.769531 78.179688 C 2.648438 77.578125 2.558594 76.96875 2.496094 76.355469 C 2.4375 75.742188 2.40625 75.128906 2.40625 74.515625 C 2.40625 73.898438 2.4375 73.285156 2.496094 72.671875 C 2.558594 72.0625 2.648438 71.453125 2.769531 70.851562 C 2.886719 70.246094 3.039062 69.652344 3.214844 69.0625 C 3.394531 68.472656 3.601562 67.894531 3.835938 67.324219 C 4.074219 66.757812 4.335938 66.203125 4.625 65.660156 C 4.914062 65.117188 5.230469 64.589844 5.570312 64.078125 C 5.914062 63.566406 6.28125 63.074219 6.671875 62.597656 C 7.0625 62.121094 7.472656 61.667969 7.910156 61.234375 C 8.34375 60.796875 8.796875 60.386719 9.273438 59.996094 C 9.75 59.605469 10.242188 59.238281 10.753906 58.894531 C 11.265625 58.554688 11.792969 58.238281 12.335938 57.949219 C 12.878906 57.660156 13.433594 57.394531 14.003906 57.160156 C 14.570312 56.925781 15.148438 56.71875 15.738281 56.539062 C 16.328125 56.359375 16.921875 56.210938 17.527344 56.089844 C 18.128906 55.972656 18.738281 55.882812 19.351562 55.820312 C 19.964844 55.761719 20.574219 55.730469 21.191406 55.730469 C 21.804688 55.730469 22.421875 55.761719 23.03125 55.820312 C 23.644531 55.882812 24.25 55.972656 24.855469 56.089844 C 25.457031 56.210938 26.054688 56.359375 26.644531 56.539062 C 27.230469 56.71875 27.8125 56.925781 28.378906 57.160156 C 28.949219 57.394531 29.503906 57.660156 30.046875 57.949219 C 30.589844 58.238281 31.113281 58.554688 31.625 58.894531 C 32.136719 59.238281 32.632812 59.605469 33.105469 59.996094 C 33.582031 60.386719 34.039062 60.796875 34.472656 61.234375 C 34.90625 61.667969 35.320312 62.121094 35.710938 62.597656 C 36.101562 63.074219 36.464844 63.566406 36.808594 64.078125 C 37.152344 64.589844 37.464844 65.117188 37.757812 65.660156 C 38.046875 66.203125 38.308594 66.757812 38.542969 67.324219 C 38.78125 67.894531 38.988281 68.472656 39.167969 69.0625 C 39.34375 69.652344 39.492188 70.246094 39.613281 70.851562 C 39.734375 71.453125 39.824219 72.0625 39.882812 72.671875 C 39.945312 73.285156 39.976562 73.898438 39.976562 74.515625 Z M 39.976562 74.515625 "/>
</g>
<path style=" stroke:none;fill-rule:evenodd;fill:rgb(0%,0%,0%);fill-opacity:1;" d="M 21.960938 81.035156 L 20.410156 81.035156 C 20.261719 81.035156 20.144531 80.917969 20.144531 80.773438 L 20.144531 69.171875 C 20.144531 69.078125 20.195312 68.988281 20.289062 68.949219 C 20.382812 68.894531 20.488281 68.90625 20.566406 68.960938 C 20.925781 69.226562 21.445312 69.226562 21.8125 68.960938 C 21.894531 68.90625 22 68.894531 22.078125 68.949219 C 22.171875 68.988281 22.222656 69.078125 22.222656 69.171875 L 22.222656 80.773438 C 22.222656 80.917969 22.105469 81.035156 21.960938 81.035156 Z M 20.671875 80.507812 L 21.695312 80.507812 L 21.695312 69.609375 C 21.375 69.714844 21.003906 69.714844 20.671875 69.609375 Z M 20.671875 80.507812 "/>
<path style=" stroke:none;fill-rule:evenodd;fill:rgb(0%,0%,0%);fill-opacity:1;" d="M 25.683594 83.820312 L 16.683594 83.820312 C 16.539062 83.820312 16.417969 83.703125 16.417969 83.554688 L 16.417969 81.992188 C 16.417969 81.84375 16.539062 81.726562 16.683594 81.726562 L 25.683594 81.726562 C 25.832031 81.726562 25.949219 81.84375 25.949219 81.992188 L 25.949219 83.554688 C 25.949219 83.703125 25.832031 83.820312 25.683594 83.820312 Z M 16.949219 83.289062 L 25.421875 83.289062 L 25.421875 82.253906 L 16.949219 82.253906 Z M 16.949219 83.289062 "/>
<path style=" stroke:none;fill-rule:evenodd;fill:rgb(0%,0%,0%);fill-opacity:1;" d="M 24.519531 82.253906 L 17.851562 82.253906 C 17.703125 82.253906 17.585938 82.136719 17.585938 81.992188 L 17.585938 81.382812 C 17.585938 80.902344 17.984375 80.507812 18.460938 80.507812 L 23.910156 80.507812 C 24.398438 80.507812 24.785156 80.902344 24.785156 81.382812 L 24.785156 81.992188 C 24.785156 82.136719 24.664062 82.253906 24.519531 82.253906 Z M 18.117188 81.726562 L 24.253906 81.726562 L 24.253906 81.382812 C 24.253906 81.195312 24.109375 81.035156 23.910156 81.035156 L 18.460938 81.035156 C 18.277344 81.035156 18.117188 81.195312 18.117188 81.382812 Z M 18.117188 81.726562 "/>
<path style=" stroke:none;fill-rule:evenodd;fill:rgb(0%,0%,0%);fill-opacity:1;" d="M 21.191406 69.691406 C 20.304688 69.691406 19.585938 68.972656 19.585938 68.097656 C 19.585938 67.222656 20.304688 66.507812 21.191406 66.507812 C 22.066406 66.507812 22.78125 67.222656 22.78125 68.097656 C 22.78125 68.972656 22.066406 69.691406 21.191406 69.691406 Z M 21.191406 67.039062 C 20.59375 67.039062 20.117188 67.515625 20.117188 68.097656 C 20.117188 68.683594 20.59375 69.160156 21.191406 69.160156 C 21.773438 69.160156 22.253906 68.683594 22.253906 68.097656 C 22.253906 67.515625 21.773438 67.039062 21.191406 67.039062 Z M 21.191406 67.039062 "/>
<path style=" stroke:none;fill-rule:evenodd;fill:rgb(0%,0%,0%);fill-opacity:1;" d="M 28.789062 70.007812 C 27.964844 69.996094 26.746094 69.730469 25.75 69.054688 C 25.285156 68.734375 24.890625 68.589844 24.492188 68.589844 C 24.148438 68.589844 23.828125 68.683594 23.457031 68.800781 C 23.125 68.90625 22.769531 69.011719 22.34375 69.066406 C 22.238281 69.078125 22.144531 69.027344 22.09375 68.949219 C 22.039062 68.855469 22.039062 68.75 22.09375 68.667969 C 22.199219 68.496094 22.253906 68.296875 22.253906 68.097656 C 22.253906 67.859375 22.171875 67.636719 22.027344 67.449219 C 21.972656 67.382812 21.960938 67.304688 21.972656 67.222656 C 21.984375 67.144531 22.039062 67.078125 22.117188 67.039062 C 22.382812 66.917969 23.085938 66.613281 23.960938 66.613281 C 24.613281 66.613281 25.222656 66.773438 25.777344 67.105469 C 26.214844 67.34375 26.597656 67.566406 26.917969 67.753906 C 27.910156 68.339844 28.441406 68.65625 28.984375 68.828125 C 29.066406 68.855469 29.132812 68.921875 29.15625 69 C 29.183594 69.066406 29.171875 69.160156 29.132812 69.226562 C 29.066406 69.316406 29.023438 69.4375 29.023438 69.542969 C 29.023438 69.582031 29.039062 69.609375 29.039062 69.652344 C 29.050781 69.675781 29.050781 69.714844 29.050781 69.742188 C 29.050781 69.886719 28.945312 70.007812 28.789062 70.007812 Z M 24.492188 68.058594 C 25.007812 68.058594 25.5 68.230469 26.042969 68.617188 C 26.839844 69.148438 27.804688 69.398438 28.507812 69.464844 C 28.507812 69.382812 28.519531 69.304688 28.546875 69.226562 C 28.042969 69.027344 27.511719 68.722656 26.652344 68.21875 C 26.335938 68.03125 25.949219 67.808594 25.511719 67.554688 C 25.035156 67.289062 24.519531 67.144531 23.960938 67.144531 C 23.40625 67.144531 22.925781 67.289062 22.621094 67.410156 C 22.726562 67.621094 22.78125 67.859375 22.78125 68.097656 C 22.78125 68.21875 22.769531 68.339844 22.742188 68.457031 C 22.925781 68.402344 23.113281 68.351562 23.300781 68.296875 C 23.695312 68.164062 24.066406 68.058594 24.492188 68.058594 Z M 24.492188 68.058594 "/>
<path style=" stroke:none;fill-rule:evenodd;fill:rgb(0%,0%,0%);fill-opacity:1;" d="M 13.597656 70.007812 C 13.515625 70.007812 13.4375 69.980469 13.382812 69.914062 C 13.328125 69.847656 13.316406 69.769531 13.328125 69.691406 C 13.34375 69.652344 13.34375 69.609375 13.34375 69.582031 C 13.34375 69.453125 13.304688 69.347656 13.238281 69.238281 C 13.183594 69.171875 13.171875 69.078125 13.199219 69 C 13.222656 68.921875 13.289062 68.867188 13.371094 68.84375 L 13.398438 68.828125 C 13.925781 68.65625 14.46875 68.339844 15.453125 67.753906 C 15.78125 67.566406 16.152344 67.34375 16.589844 67.105469 C 17.148438 66.785156 17.757812 66.613281 18.40625 66.613281 C 19.296875 66.613281 20 66.917969 20.261719 67.039062 C 20.328125 67.078125 20.382812 67.144531 20.394531 67.222656 C 20.421875 67.304688 20.394531 67.382812 20.34375 67.449219 C 20.195312 67.636719 20.117188 67.859375 20.117188 68.097656 C 20.117188 68.285156 20.167969 68.46875 20.261719 68.628906 C 20.304688 68.683594 20.328125 68.734375 20.328125 68.800781 C 20.328125 68.949219 20.210938 69.066406 20.0625 69.066406 C 20.050781 69.066406 20.039062 69.066406 20.023438 69.066406 C 19.613281 69.011719 19.242188 68.90625 18.910156 68.800781 C 18.550781 68.683594 18.234375 68.589844 17.890625 68.589844 C 17.480469 68.589844 17.082031 68.734375 16.632812 69.054688 C 15.636719 69.730469 14.417969 69.996094 13.597656 70.007812 Z M 13.820312 69.238281 C 13.847656 69.304688 13.859375 69.382812 13.859375 69.464844 C 14.5625 69.398438 15.542969 69.148438 16.328125 68.617188 C 16.871094 68.230469 17.375 68.058594 17.890625 68.058594 C 18.3125 68.058594 18.6875 68.164062 19.070312 68.296875 C 19.253906 68.351562 19.441406 68.402344 19.640625 68.457031 C 19.613281 68.339844 19.601562 68.21875 19.601562 68.097656 C 19.601562 67.859375 19.652344 67.621094 19.757812 67.410156 C 19.441406 67.289062 18.976562 67.144531 18.40625 67.144531 C 17.851562 67.144531 17.332031 67.289062 16.855469 67.554688 C 16.417969 67.808594 16.046875 68.03125 15.714844 68.21875 C 14.855469 68.722656 14.324219 69.027344 13.820312 69.238281 Z M 13.820312 69.238281 "/>
<path style=" stroke:none;fill-rule:evenodd;fill:rgb(0%,0%,0%);fill-opacity:1;" d="M 29.609375 70.65625 C 29 70.65625 28.496094 70.167969 28.496094 69.542969 C 28.496094 68.933594 29 68.445312 29.609375 68.445312 C 30.21875 68.445312 30.722656 68.933594 30.722656 69.542969 C 30.722656 70.167969 30.21875 70.65625 29.609375 70.65625 Z M 29.609375 68.972656 C 29.289062 68.972656 29.023438 69.226562 29.023438 69.542969 C 29.023438 69.863281 29.289062 70.125 29.609375 70.125 C 29.925781 70.125 30.191406 69.863281 30.191406 69.542969 C 30.191406 69.226562 29.925781 68.972656 29.609375 68.972656 Z M 29.609375 68.972656 "/>
<path style=" stroke:none;fill-rule:evenodd;fill:rgb(0%,0%,0%);fill-opacity:1;" d="M 12.761719 70.683594 C 12.152344 70.683594 11.660156 70.195312 11.660156 69.582031 C 11.660156 68.960938 12.152344 68.46875 12.761719 68.46875 C 13.371094 68.46875 13.875 68.960938 13.875 69.582031 C 13.875 70.195312 13.371094 70.683594 12.761719 70.683594 Z M 12.761719 69 C 12.441406 69 12.191406 69.253906 12.191406 69.582031 C 12.191406 69.902344 12.441406 70.152344 12.761719 70.152344 C 13.078125 70.152344 13.34375 69.902344 13.34375 69.582031 C 13.34375 69.253906 13.078125 69 12.761719 69 Z M 12.761719 69 "/>
<path style=" stroke:none;fill-rule:evenodd;fill:rgb(0%,0%,0%);fill-opacity:1;" d="M 12.761719 79.632812 C 11.167969 79.632812 9.871094 78.332031 9.871094 76.742188 L 9.871094 76.476562 C 9.871094 76.332031 9.988281 76.210938 10.136719 76.210938 L 15.382812 76.210938 C 15.53125 76.210938 15.648438 76.332031 15.648438 76.476562 L 15.648438 76.742188 C 15.648438 78.332031 14.351562 79.632812 12.761719 79.632812 Z M 10.398438 76.742188 C 10.398438 78.042969 11.460938 79.101562 12.761719 79.101562 C 14.058594 79.101562 15.121094 78.042969 15.121094 76.742188 Z M 10.398438 76.742188 "/>
<path style=" stroke:none;fill-rule:evenodd;fill:rgb(0%,0%,0%);fill-opacity:1;" d="M 14.949219 76.742188 L 10.585938 76.742188 C 10.492188 76.742188 10.414062 76.703125 10.375 76.636719 C 10.320312 76.554688 10.308594 76.476562 10.335938 76.382812 L 12.507812 70.324219 C 12.546875 70.234375 12.652344 70.152344 12.761719 70.152344 C 12.878906 70.152344 12.972656 70.234375 13.011719 70.324219 L 15.171875 76.355469 C 15.199219 76.382812 15.214844 76.4375 15.214844 76.476562 C 15.214844 76.621094 15.09375 76.742188 14.949219 76.742188 Z M 10.957031 76.210938 L 14.5625 76.210938 L 12.761719 71.203125 Z M 10.957031 76.210938 "/>
<path style=" stroke:none;fill-rule:evenodd;fill:rgb(0%,0%,0%);fill-opacity:1;" d="M 29.609375 79.632812 C 28.015625 79.632812 26.71875 78.332031 26.71875 76.742188 L 26.71875 76.476562 C 26.71875 76.332031 26.839844 76.210938 26.984375 76.210938 L 32.234375 76.210938 C 32.378906 76.210938 32.496094 76.332031 32.496094 76.476562 L 32.496094 76.742188 C 32.496094 78.332031 31.199219 79.632812 29.609375 79.632812 Z M 27.25 76.742188 C 27.25 78.042969 28.308594 79.101562 29.609375 79.101562 C 30.910156 79.101562 31.96875 78.042969 31.96875 76.742188 Z M 27.25 76.742188 "/>
<path style=" stroke:none;fill-rule:evenodd;fill:rgb(0%,0%,0%);fill-opacity:1;" d="M 31.796875 76.742188 C 31.796875 76.742188 31.78125 76.742188 31.78125 76.742188 L 27.433594 76.742188 C 27.34375 76.742188 27.261719 76.703125 27.207031 76.636719 C 27.167969 76.554688 27.15625 76.476562 27.183594 76.382812 L 29.355469 70.324219 C 29.398438 70.234375 29.503906 70.152344 29.609375 70.152344 C 29.726562 70.152344 29.820312 70.234375 29.859375 70.324219 L 32.023438 76.355469 C 32.046875 76.382812 32.0625 76.4375 32.0625 76.476562 C 32.0625 76.621094 31.941406 76.742188 31.796875 76.742188 Z M 27.804688 76.210938 L 31.410156 76.210938 L 29.609375 71.203125 Z M 27.804688 76.210938 "/>
<path style=" stroke:none;fill-rule:evenodd;fill:rgb(0%,0%,0%);fill-opacity:1;" d="M 21.800781 67.183594 C 21.761719 67.183594 21.707031 67.171875 21.679688 67.15625 C 21.375 67 21.003906 67 20.699219 67.15625 C 20.621094 67.199219 20.527344 67.183594 20.449219 67.144531 C 20.367188 67.089844 20.316406 67.011719 20.316406 66.917969 L 20.316406 66.070312 C 20.316406 65.59375 20.714844 65.210938 21.191406 65.210938 C 21.667969 65.210938 22.066406 65.59375 22.066406 66.070312 L 22.066406 66.917969 C 22.066406 67.011719 22.011719 67.105469 21.933594 67.144531 C 21.894531 67.171875 21.839844 67.183594 21.800781 67.183594 Z M 21.191406 66.507812 C 21.296875 66.507812 21.417969 66.523438 21.535156 66.546875 L 21.535156 66.070312 C 21.535156 65.886719 21.375 65.738281 21.191406 65.738281 C 21.003906 65.738281 20.847656 65.886719 20.847656 66.070312 L 20.847656 66.546875 C 20.964844 66.523438 21.070312 66.507812 21.191406 66.507812 Z M 21.191406 66.507812 "/>
<path style=" stroke:none;fill-rule:evenodd;fill:rgb(0%,0%,0%);fill-opacity:1;" d="M 16.949219 82.253906 L 25.421875 82.253906 L 25.421875 83.289062 L 16.949219 83.289062 Z M 16.949219 82.253906 "/>
<path style=" stroke:none;fill-rule:evenodd;fill:rgb(0%,0%,0%);fill-opacity:1;" d="M 18.117188 81.726562 L 24.253906 81.726562 L 24.253906 81.382812 C 24.253906 81.195312 24.109375 81.035156 23.910156 81.035156 L 18.460938 81.035156 C 18.277344 81.035156 18.117188 81.195312 18.117188 81.382812 Z M 18.117188 81.726562 "/>
<path style=" stroke:none;fill-rule:evenodd;fill:rgb(0%,0%,0%);fill-opacity:1;" d="M 20.671875 80.507812 L 21.695312 80.507812 L 21.695312 69.609375 C 21.640625 69.621094 21.574219 69.652344 21.523438 69.664062 C 21.417969 69.675781 21.296875 69.691406 21.191406 69.691406 C 21.070312 69.691406 20.953125 69.675781 20.847656 69.664062 C 20.78125 69.652344 20.726562 69.621094 20.671875 69.609375 Z M 20.671875 80.507812 "/>
<path style=" stroke:none;fill-rule:evenodd;fill:rgb(0%,0%,0%);fill-opacity:1;" d="M 20.6875 69.039062 C 20.992188 69.199219 21.375 69.199219 21.679688 69.039062 C 21.855469 68.949219 21.984375 68.828125 22.09375 68.667969 C 22.144531 68.5625 22.199219 68.457031 22.222656 68.339844 C 22.222656 68.324219 22.222656 68.324219 22.222656 68.324219 C 22.238281 68.257812 22.253906 68.179688 22.253906 68.097656 C 22.253906 67.859375 22.171875 67.621094 22.027344 67.449219 C 21.933594 67.332031 21.8125 67.222656 21.679688 67.15625 C 21.628906 67.132812 21.574219 67.105469 21.523438 67.089844 C 21.402344 67.050781 21.296875 67.039062 21.191406 67.039062 C 21.085938 67.039062 20.980469 67.050781 20.871094 67.078125 C 20.820312 67.105469 20.753906 67.132812 20.699219 67.15625 C 20.566406 67.222656 20.449219 67.332031 20.34375 67.449219 C 20.195312 67.636719 20.117188 67.859375 20.117188 68.097656 C 20.117188 68.296875 20.167969 68.484375 20.261719 68.628906 C 20.261719 68.628906 20.261719 68.628906 20.261719 68.644531 C 20.277344 68.65625 20.289062 68.667969 20.304688 68.695312 C 20.394531 68.84375 20.527344 68.960938 20.6875 69.039062 Z M 20.6875 69.039062 "/>
<path style=" stroke:none;fill-rule:evenodd;fill:rgb(0%,0%,0%);fill-opacity:1;" d="M 21.191406 66.507812 C 21.308594 66.507812 21.417969 66.523438 21.535156 66.546875 L 21.535156 66.070312 C 21.535156 65.886719 21.375 65.738281 21.191406 65.738281 C 21.003906 65.738281 20.847656 65.886719 20.847656 66.070312 L 20.847656 66.546875 C 20.964844 66.523438 21.070312 66.507812 21.191406 66.507812 Z M 21.191406 66.507812 "/>
<path style=" stroke:none;fill-rule:evenodd;fill:rgb(0%,0%,0%);fill-opacity:1;" d="M 19.757812 67.410156 C 19.441406 67.289062 18.976562 67.144531 18.40625 67.144531 C 17.851562 67.144531 17.332031 67.289062 16.855469 67.554688 C 16.417969 67.808594 16.046875 68.03125 15.714844 68.21875 C 14.855469 68.722656 14.324219 69.027344 13.820312 69.238281 C 13.847656 69.304688 13.859375 69.382812 13.859375 69.464844 C 14.5625 69.398438 15.542969 69.148438 16.328125 68.617188 C 16.871094 68.230469 17.375 68.058594 17.890625 68.058594 C 18.3125 68.058594 18.6875 68.164062 19.070312 68.296875 C 19.253906 68.351562 19.441406 68.402344 19.640625 68.457031 C 19.613281 68.339844 19.601562 68.21875 19.601562 68.097656 C 19.601562 67.992188 19.601562 67.886719 19.628906 67.78125 C 19.652344 67.648438 19.695312 67.53125 19.757812 67.410156 Z M 19.757812 67.410156 "/>
<path style=" stroke:none;fill-rule:evenodd;fill:rgb(0%,0%,0%);fill-opacity:1;" d="M 29.132812 69.226562 C 29.078125 69.304688 29.050781 69.382812 29.039062 69.464844 C 29.039062 69.492188 29.023438 69.515625 29.023438 69.542969 C 29.023438 69.582031 29.039062 69.609375 29.039062 69.652344 C 29.050781 69.675781 29.050781 69.691406 29.050781 69.714844 C 29.132812 69.957031 29.355469 70.125 29.609375 70.125 C 29.925781 70.125 30.191406 69.863281 30.191406 69.542969 C 30.191406 69.226562 29.925781 68.972656 29.609375 68.972656 C 29.410156 68.972656 29.238281 69.078125 29.132812 69.226562 Z M 29.132812 69.226562 "/>
<path style=" stroke:none;fill-rule:evenodd;fill:rgb(0%,0%,0%);fill-opacity:1;" d="M 13.328125 69.691406 C 13.34375 69.652344 13.34375 69.621094 13.34375 69.582031 C 13.34375 69.542969 13.34375 69.503906 13.328125 69.476562 C 13.316406 69.382812 13.277344 69.304688 13.238281 69.238281 C 13.132812 69.09375 12.957031 69 12.761719 69 C 12.441406 69 12.191406 69.253906 12.191406 69.582031 C 12.191406 69.902344 12.441406 70.152344 12.761719 70.152344 C 13.039062 70.152344 13.277344 69.957031 13.328125 69.691406 Z M 13.328125 69.691406 "/>
<path style=" stroke:none;fill-rule:evenodd;fill:rgb(0%,0%,0%);fill-opacity:1;" d="M 14.949219 76.742188 L 10.398438 76.742188 C 10.398438 78.042969 11.460938 79.101562 12.761719 79.101562 C 14.058594 79.101562 15.121094 78.042969 15.121094 76.742188 Z M 14.949219 76.742188 "/>
<path style=" stroke:none;fill-rule:evenodd;fill:rgb(0%,0%,0%);fill-opacity:1;" d="M 27.25 76.742188 C 27.25 78.042969 28.308594 79.101562 29.609375 79.101562 C 30.910156 79.101562 31.96875 78.042969 31.96875 76.742188 Z M 27.25 76.742188 "/>
<path style=" stroke:none;fill-rule:evenodd;fill:rgb(0%,0%,0%);fill-opacity:1;" d="M 23.285156 68.296875 C 23.671875 68.179688 24.054688 68.058594 24.464844 68.058594 C 24.980469 68.058594 25.484375 68.246094 26.03125 68.617188 C 26.8125 69.160156 27.792969 69.410156 28.496094 69.476562 C 28.496094 69.398438 28.507812 69.316406 28.535156 69.238281 C 28.03125 69.039062 27.5 68.722656 26.640625 68.230469 C 26.308594 68.03125 25.9375 67.820312 25.5 67.566406 C 25.023438 67.289062 24.503906 67.15625 23.949219 67.15625 C 23.390625 67.15625 22.914062 67.289062 22.609375 67.410156 C 22.714844 67.621094 22.769531 67.859375 22.769531 68.113281 C 22.769531 68.230469 22.757812 68.351562 22.726562 68.46875 C 22.914062 68.417969 23.101562 68.363281 23.285156 68.296875 Z M 23.285156 68.296875 "/>
<g clip-path="url(#clip2)" clip-rule="nonzero">
<path style=" stroke:none;fill-rule:nonzero;fill:rgb(0.392157%,0.392157%,6.666667%);fill-opacity:1;" d="M 143.761719 84.667969 C 143.015625 84.582031 142.269531 84.542969 141.519531 84.542969 C 139.097656 84.542969 136.671875 84.542969 134.25 84.542969 C 134.148438 84.542969 134.050781 84.542969 133.90625 84.542969 C 134.097656 84.425781 134.269531 84.433594 134.429688 84.394531 C 135.035156 84.246094 135.648438 84.164062 136.277344 84.195312 C 136.382812 84.199219 136.488281 84.195312 136.59375 84.191406 C 137.332031 84.175781 138.066406 84.1875 138.804688 84.109375 C 138.972656 84.089844 139.136719 84.0625 139.300781 84.03125 C 139.328125 84.027344 139.351562 83.984375 139.394531 83.9375 C 139.308594 83.917969 139.261719 83.902344 139.210938 83.894531 C 138.8125 83.855469 138.414062 83.8125 138.015625 83.785156 C 137.679688 83.765625 137.339844 83.765625 137.003906 83.753906 C 136.921875 83.75 136.839844 83.738281 136.742188 83.726562 C 136.691406 83.328125 136.769531 82.9375 136.710938 82.546875 C 136.421875 82.425781 136.105469 82.480469 135.816406 82.367188 C 135.855469 82.261719 135.898438 82.175781 135.917969 82.082031 C 135.992188 81.714844 135.730469 81.425781 135.367188 81.464844 C 135.25 81.476562 135.136719 81.496094 135.019531 81.511719 C 134.28125 81.625 133.542969 81.742188 132.804688 81.851562 C 132.730469 81.863281 132.652344 81.875 132.582031 81.859375 C 132.179688 81.785156 131.777344 81.703125 131.375 81.625 C 131.308594 81.609375 131.269531 81.570312 131.238281 81.519531 C 131.566406 81.609375 132.085938 81.679688 132.285156 81.65625 C 132.210938 81.601562 132.152344 81.5625 132.09375 81.523438 C 131.894531 81.382812 131.773438 81.195312 131.746094 80.949219 C 131.730469 80.8125 131.703125 80.675781 131.703125 80.539062 C 131.703125 80.359375 131.636719 80.214844 131.507812 80.089844 C 131.441406 80.023438 131.382812 79.949219 131.328125 79.875 C 131.300781 79.832031 131.277344 79.796875 131.265625 79.753906 L 131.339844 79.699219 C 131.351562 79.734375 131.378906 79.773438 131.417969 79.824219 C 131.4375 79.851562 131.460938 79.875 131.484375 79.894531 C 131.710938 80.085938 131.796875 80.332031 131.785156 80.625 C 131.78125 80.699219 131.796875 80.773438 131.804688 80.847656 C 131.828125 81 131.882812 81.136719 131.984375 81.246094 C 132.304688 81.59375 132.6875 81.769531 133.167969 81.679688 C 133.269531 81.664062 133.304688 81.589844 133.257812 81.492188 C 133.195312 81.355469 133.085938 81.257812 132.972656 81.160156 C 132.789062 81.003906 132.601562 80.847656 132.425781 80.679688 C 132.121094 80.390625 132.054688 80.035156 132.167969 79.632812 C 132.203125 79.523438 132.234375 79.410156 132.277344 79.304688 C 132.390625 79.007812 132.402344 78.707031 132.320312 78.402344 C 132.292969 78.300781 132.28125 78.191406 132.269531 78.085938 C 132.46875 78.449219 132.507812 78.828125 132.390625 79.226562 C 132.347656 79.382812 132.316406 79.539062 132.28125 79.691406 C 132.210938 80.039062 132.296875 80.34375 132.542969 80.597656 C 132.726562 80.785156 132.914062 80.972656 133.105469 81.15625 C 133.347656 81.386719 133.351562 81.382812 133.460938 81.664062 C 133.714844 81.636719 133.976562 81.628906 134.21875 81.53125 C 134.210938 81.320312 134.203125 81.285156 134.109375 81.175781 C 134.035156 81.085938 133.953125 81.003906 133.871094 80.921875 C 133.726562 80.78125 133.578125 80.644531 133.441406 80.496094 C 133.316406 80.355469 133.199219 80.207031 133.09375 80.050781 C 132.960938 79.859375 132.921875 79.640625 132.988281 79.414062 C 133.046875 79.210938 133.097656 79.003906 133.183594 78.8125 C 133.359375 78.414062 133.550781 78.027344 133.738281 77.636719 C 133.882812 77.34375 134.019531 77.042969 134.113281 76.726562 C 134.125 76.679688 134.152344 76.636719 134.203125 76.527344 C 134.1875 76.78125 134.132812 76.953125 134.0625 77.117188 C 133.992188 77.292969 133.910156 77.464844 133.835938 77.640625 C 133.820312 77.675781 133.796875 77.71875 133.867188 77.757812 C 133.902344 77.730469 133.941406 77.703125 133.984375 77.675781 C 134.195312 77.519531 134.316406 77.324219 134.292969 77.050781 C 134.289062 76.988281 134.296875 76.925781 134.300781 76.863281 C 134.3125 76.625 134.363281 76.402344 134.515625 76.210938 C 134.570312 76.144531 134.613281 76.074219 134.652344 75.996094 C 134.832031 75.636719 134.789062 75.550781 134.542969 75.335938 C 134.523438 75.324219 134.507812 75.308594 134.492188 75.296875 C 134.351562 75.207031 134.308594 75.078125 134.347656 74.914062 C 134.410156 74.628906 134.367188 74.347656 134.308594 74.066406 C 134.226562 73.648438 134.148438 73.234375 134.207031 72.804688 C 134.234375 72.597656 134.167969 72.414062 134.019531 72.253906 C 133.914062 72.140625 133.828125 72.003906 133.738281 71.875 C 133.710938 71.835938 133.707031 71.769531 133.636719 71.773438 C 133.539062 71.863281 133.441406 71.957031 133.34375 72.046875 C 133.414062 71.917969 133.480469 71.785156 133.558594 71.660156 C 133.640625 71.53125 133.699219 71.398438 133.710938 71.25 C 133.714844 71.195312 133.714844 71.144531 133.707031 71.089844 C 133.695312 71.019531 133.644531 70.976562 133.582031 70.96875 C 133.535156 70.960938 133.46875 70.980469 133.441406 71.011719 C 133.378906 71.082031 133.332031 71.164062 133.285156 71.25 C 133.203125 71.40625 133.132812 71.574219 133.046875 71.730469 C 132.914062 71.960938 132.824219 72.207031 132.761719 72.464844 C 132.648438 72.945312 132.417969 73.371094 132.140625 73.777344 C 132.167969 73.683594 132.191406 73.585938 132.226562 73.5 C 132.289062 73.355469 132.367188 73.214844 132.4375 73.074219 C 132.554688 72.832031 132.652344 72.585938 132.691406 72.324219 C 132.761719 71.820312 133.003906 71.40625 133.304688 71.019531 C 133.359375 70.953125 133.414062 70.890625 133.46875 70.828125 C 133.460938 70.757812 133.457031 70.691406 133.445312 70.632812 C 133.347656 70.164062 133.269531 69.695312 133.261719 69.214844 C 133.257812 69.035156 133.226562 68.855469 133.207031 68.675781 C 133.203125 68.640625 133.207031 68.585938 133.125 68.601562 C 133.109375 68.65625 133.089844 68.714844 133.078125 68.773438 C 132.980469 69.273438 132.824219 69.757812 132.578125 70.207031 C 132.46875 70.402344 132.367188 70.601562 132.273438 70.800781 C 132.140625 71.078125 132.011719 71.355469 131.890625 71.636719 C 131.628906 72.234375 131.492188 72.863281 131.429688 73.511719 C 131.410156 73.742188 131.382812 73.976562 131.355469 74.207031 C 131.355469 74.214844 131.347656 74.226562 131.34375 74.234375 C 131.339844 74.230469 131.332031 74.230469 131.328125 74.226562 C 131.265625 73.511719 131.410156 72.515625 131.667969 71.785156 C 131.851562 71.265625 132.089844 70.769531 132.355469 70.289062 C 132.691406 69.679688 132.910156 69.03125 133.035156 68.347656 C 133.078125 68.121094 133.085938 67.886719 133.089844 67.652344 C 133.09375 67.28125 133.082031 66.914062 133.074219 66.539062 C 133.074219 66.492188 133.085938 66.433594 133.007812 66.398438 C 132.75 66.488281 132.597656 66.742188 132.289062 66.90625 C 132.617188 66.546875 132.902344 66.246094 133.175781 65.941406 C 133.507812 65.566406 133.609375 65.128906 133.496094 64.636719 C 133.457031 64.460938 133.417969 64.289062 133.375 64.113281 C 133.320312 63.878906 133.335938 63.648438 133.367188 63.417969 C 133.382812 63.308594 133.429688 63.222656 133.515625 63.148438 C 133.738281 62.96875 133.957031 62.785156 134.171875 62.597656 C 134.625 62.203125 135.082031 61.808594 135.527344 61.402344 C 135.800781 61.152344 136.046875 60.878906 136.226562 60.546875 C 136.234375 60.535156 136.261719 60.53125 136.300781 60.511719 C 136.304688 60.648438 136.304688 60.773438 136.316406 60.894531 C 136.324219 61.03125 136.324219 61.171875 136.355469 61.304688 C 136.386719 61.441406 136.398438 61.574219 136.367188 61.710938 C 136.328125 61.894531 136.289062 62.082031 136.25 62.269531 C 136.195312 62.511719 136.1875 62.753906 136.308594 62.980469 C 136.332031 63.023438 136.332031 63.078125 136.34375 63.117188 C 136.144531 63.21875 135.957031 63.277344 135.753906 63.210938 C 135.742188 63.207031 135.734375 63.207031 135.722656 63.207031 C 135.546875 63.195312 135.441406 63.285156 135.414062 63.453125 C 135.394531 63.585938 135.421875 63.710938 135.472656 63.828125 C 135.515625 63.921875 135.558594 64.015625 135.601562 64.109375 C 135.535156 64.21875 135.476562 64.320312 135.382812 64.378906 C 135.316406 64.339844 135.253906 64.320312 135.214844 64.28125 C 135.171875 64.242188 135.148438 64.179688 135.113281 64.128906 C 135.09375 64.105469 135.070312 64.082031 135.046875 64.0625 C 134.996094 64.019531 134.914062 64.03125 134.878906 64.082031 C 134.777344 64.230469 134.789062 64.425781 134.914062 64.546875 C 134.972656 64.601562 135.046875 64.644531 135.109375 64.695312 C 135.113281 64.957031 134.300781 70.195312 134.226562 70.414062 C 134.1875 70.417969 134.148438 70.421875 134.105469 70.429688 C 134.066406 70.4375 134.019531 70.429688 134.011719 70.488281 C 134.210938 71.019531 134.695312 71.324219 135.332031 71.324219 C 136.003906 71.320312 136.53125 70.992188 136.738281 70.449219 C 136.539062 70.347656 136.539062 70.347656 136.496094 70.132812 C 136.445312 69.882812 136.394531 69.636719 136.339844 69.386719 C 136.039062 67.925781 135.742188 66.464844 135.441406 65 C 135.421875 64.910156 135.421875 64.816406 135.410156 64.710938 C 135.640625 64.613281 135.75 64.425781 135.859375 64.226562 C 135.929688 64.097656 136.007812 63.96875 136.097656 63.851562 C 136.316406 63.5625 136.410156 63.542969 136.75 63.699219 C 136.777344 63.679688 136.808594 63.65625 136.84375 63.636719 C 136.988281 63.554688 137.046875 63.550781 137.148438 63.667969 C 137.238281 63.773438 137.3125 63.886719 137.386719 64 C 137.472656 64.136719 137.539062 64.285156 137.632812 64.410156 C 137.734375 64.539062 137.855469 64.65625 137.976562 64.785156 C 137.90625 65.238281 137.832031 65.699219 137.761719 66.160156 C 137.566406 67.460938 137.371094 68.757812 137.171875 70.054688 C 137.15625 70.15625 137.160156 70.265625 137.082031 70.351562 C 137.050781 70.355469 137.019531 70.359375 136.988281 70.367188 C 136.949219 70.375 136.914062 70.386719 136.875 70.398438 C 136.980469 70.726562 137.179688 70.964844 137.484375 71.101562 C 138.03125 71.34375 138.574219 71.316406 139.089844 71.011719 C 139.332031 70.871094 139.511719 70.664062 139.621094 70.386719 C 139.539062 70.351562 139.476562 70.320312 139.402344 70.289062 C 139.214844 69.363281 139.023438 68.441406 138.835938 67.515625 C 138.648438 66.585938 138.449219 65.65625 138.269531 64.726562 C 138.371094 64.621094 138.46875 64.539062 138.464844 64.394531 C 138.457031 64.253906 138.421875 64.148438 138.277344 64.085938 C 138.191406 64.152344 138.109375 64.214844 138.023438 64.277344 C 137.921875 64.210938 137.875 64.128906 137.882812 64.007812 C 137.886719 63.871094 137.890625 63.734375 137.882812 63.597656 C 137.875 63.472656 137.824219 63.355469 137.703125 63.320312 C 137.5625 63.277344 137.417969 63.253906 137.273438 63.25 C 137.0625 63.242188 137.03125 63.222656 137.089844 63.011719 C 137.164062 62.742188 137.128906 62.488281 137.039062 62.234375 C 137.003906 62.132812 136.957031 62.035156 136.921875 61.9375 C 136.871094 61.808594 136.824219 61.683594 136.785156 61.550781 C 136.765625 61.492188 136.75 61.417969 136.769531 61.363281 C 136.84375 61.179688 136.828125 60.992188 136.796875 60.800781 C 136.789062 60.730469 136.804688 60.65625 136.816406 60.582031 C 136.835938 60.496094 136.832031 60.417969 136.777344 60.34375 C 136.679688 60.199219 136.671875 60.050781 136.734375 59.890625 C 136.773438 59.789062 136.789062 59.679688 136.714844 59.585938 C 136.644531 59.496094 136.671875 59.40625 136.699219 59.316406 C 136.769531 59.070312 136.851562 58.832031 136.910156 58.585938 C 137.007812 58.171875 137.0625 57.75 137.019531 57.324219 C 136.996094 57.082031 136.910156 56.894531 136.671875 56.804688 C 136.65625 56.800781 136.644531 56.773438 136.652344 56.78125 C 136.558594 56.5625 136.75 56.457031 136.804688 56.3125 C 136.742188 56.25 136.664062 56.207031 136.648438 56.144531 C 136.59375 55.972656 136.453125 55.875 136.359375 55.738281 C 136.15625 55.933594 136.101562 55.996094 136.054688 56.179688 C 136.035156 56.265625 136.007812 56.335938 135.933594 56.390625 C 135.898438 56.417969 135.878906 56.472656 135.84375 56.523438 C 135.925781 56.59375 135.996094 56.652344 136.070312 56.714844 C 136.019531 56.75 135.972656 56.785156 135.929688 56.8125 C 135.945312 56.921875 136.082031 56.964844 136.023438 57.082031 C 136.117188 57.363281 136.078125 57.675781 136.234375 57.945312 C 136.246094 57.960938 136.246094 57.984375 136.246094 58.003906 C 136.265625 58.34375 136.285156 58.683594 136.300781 59.019531 C 136.300781 59.035156 136.277344 59.050781 136.265625 59.058594 C 136.238281 59.011719 136.210938 58.957031 136.164062 58.878906 C 136.121094 58.941406 136.09375 58.984375 136.0625 59.023438 C 135.941406 59.195312 135.824219 59.371094 135.691406 59.539062 C 135.515625 59.761719 135.34375 59.988281 135.214844 60.246094 C 135.121094 60.429688 134.992188 60.582031 134.824219 60.699219 C 134.304688 61.078125 133.78125 61.453125 133.261719 61.824219 C 133.242188 61.820312 133.222656 61.8125 133.203125 61.804688 C 133.039062 61.757812 132.949219 61.820312 132.972656 61.976562 C 132.984375 62.0625 133.023438 62.144531 132.984375 62.261719 C 132.964844 62.199219 132.960938 62.167969 132.945312 62.140625 C 132.898438 62.0625 132.914062 61.917969 132.792969 61.921875 C 132.65625 61.929688 132.703125 62.078125 132.679688 62.179688 C 132.636719 62.128906 132.605469 62.09375 132.5625 62.042969 C 132.382812 62.160156 132.230469 62.285156 132.109375 62.449219 C 132.078125 62.492188 132.046875 62.539062 131.984375 62.519531 C 131.929688 62.449219 131.851562 62.476562 131.785156 62.484375 C 131.660156 62.496094 131.539062 62.511719 131.402344 62.527344 C 131.328125 62.320312 131.257812 62.125 131.195312 61.953125 C 131.328125 61.902344 131.46875 61.855469 131.601562 61.796875 C 131.675781 61.761719 131.703125 61.691406 131.683594 61.609375 C 131.664062 61.527344 131.621094 61.441406 131.625 61.363281 C 131.640625 61.15625 131.582031 60.964844 131.53125 60.777344 C 131.566406 60.71875 131.601562 60.667969 131.636719 60.605469 C 131.554688 60.507812 131.472656 60.414062 131.410156 60.34375 C 131.429688 60.238281 131.46875 60.152344 131.453125 60.078125 C 131.429688 59.96875 131.367188 59.867188 131.320312 59.765625 C 131.3125 59.753906 131.28125 59.757812 131.261719 59.753906 C 131.25 59.75 131.242188 59.746094 131.234375 59.746094 C 131.246094 59.746094 131.253906 59.746094 131.265625 59.75 C 131.25 59.679688 131.242188 59.609375 131.21875 59.542969 C 131.1875 59.4375 131.109375 59.414062 131.015625 59.421875 C 131.015625 59.421875 131.011719 59.421875 131.011719 59.421875 C 131.105469 59.316406 131.296875 59.367188 131.367188 59.1875 C 131.308594 59.0625 131.246094 58.933594 131.058594 58.953125 C 131.042969 58.957031 131.011719 58.945312 131.007812 58.933594 C 130.941406 58.726562 130.738281 58.710938 130.582031 58.632812 C 130.519531 58.601562 130.421875 58.570312 130.375 58.597656 C 130.207031 58.691406 130.027344 58.640625 129.855469 58.667969 C 129.625 58.707031 129.429688 58.792969 129.34375 59.050781 C 129.308594 59.015625 129.285156 58.984375 129.265625 58.980469 C 129.226562 58.980469 129.191406 59 129.15625 59.015625 C 129.136719 59.023438 129.121094 59.042969 129.113281 59.0625 C 129.023438 59.273438 128.867188 59.425781 128.6875 59.5625 C 128.660156 59.578125 128.640625 59.605469 128.621094 59.628906 C 128.542969 59.714844 128.511719 59.808594 128.566406 59.921875 C 128.605469 60.007812 128.625 60.101562 128.675781 60.183594 C 128.71875 60.261719 128.785156 60.324219 128.871094 60.425781 C 128.757812 60.390625 128.683594 60.371094 128.617188 60.351562 C 128.496094 60.476562 128.542969 60.597656 128.609375 60.710938 C 128.703125 60.859375 128.796875 61.007812 128.894531 61.15625 C 128.914062 61.191406 128.945312 61.214844 128.992188 61.257812 C 129.027344 61.210938 129.050781 61.175781 129.085938 61.128906 C 129.113281 61.183594 129.15625 61.226562 129.160156 61.269531 C 129.171875 61.382812 129.171875 61.5 129.167969 61.613281 C 129.167969 61.640625 129.148438 61.671875 129.136719 61.699219 C 129.085938 61.804688 129.015625 61.902344 128.984375 62.011719 C 128.949219 62.148438 129.109375 62.226562 129.128906 62.347656 C 129.109375 62.417969 129.078125 62.46875 128.996094 62.441406 C 128.964844 62.433594 128.9375 62.410156 128.910156 62.40625 C 128.828125 62.382812 128.765625 62.441406 128.765625 62.523438 C 128.769531 62.628906 128.820312 62.703125 128.921875 62.738281 C 128.992188 62.757812 129.0625 62.757812 129.125 62.765625 C 129.164062 62.839844 129.199219 62.902344 129.230469 62.96875 C 129.203125 63.148438 129.109375 63.277344 128.949219 63.363281 C 128.890625 63.390625 128.84375 63.433594 128.789062 63.46875 C 128.457031 63.679688 128.222656 63.96875 128.097656 64.347656 C 128.027344 64.570312 127.945312 64.789062 127.875 65.011719 C 127.761719 65.375 127.617188 65.726562 127.449219 66.070312 C 127.183594 66.597656 126.929688 67.132812 126.675781 67.667969 C 126.5 68.042969 126.371094 68.4375 126.292969 68.84375 C 126.214844 69.25 126.140625 69.65625 126.046875 70.058594 C 125.984375 70.324219 125.890625 70.585938 125.8125 70.847656 C 125.796875 70.898438 125.769531 70.945312 125.6875 70.921875 C 125.664062 70.792969 125.632812 70.660156 125.621094 70.527344 C 125.605469 70.421875 125.558594 70.347656 125.46875 70.300781 C 125.351562 70.242188 125.230469 70.203125 125.101562 70.21875 C 125.046875 70.226562 124.976562 70.261719 124.945312 70.308594 C 124.832031 70.472656 124.890625 70.746094 125.050781 70.875 C 125.199219 70.992188 125.347656 71.109375 125.429688 71.289062 C 125.410156 71.320312 125.402344 71.355469 125.382812 71.375 C 125.265625 71.5 125.257812 71.632812 125.320312 71.785156 C 125.421875 72.042969 125.519531 72.300781 125.71875 72.5 C 125.730469 72.515625 125.726562 72.542969 125.734375 72.574219 C 125.554688 72.75 125.316406 72.878906 125.203125 73.179688 C 125.476562 73.125 125.710938 72.996094 125.964844 73.054688 C 126.074219 73.136719 126.1875 73.21875 126.292969 73.304688 C 126.339844 73.34375 126.410156 73.394531 126.414062 73.441406 C 126.4375 73.609375 126.554688 73.71875 126.648438 73.851562 C 126.546875 74.039062 126.617188 74.195312 126.707031 74.363281 C 127.546875 75.871094 128.375 77.378906 129.207031 78.894531 C 129.25 78.972656 129.285156 79.058594 129.320312 79.144531 C 129.3125 79.144531 129.308594 79.148438 129.304688 79.152344 C 129.226562 79.0625 129.144531 78.972656 129.054688 78.867188 C 128.929688 78.953125 128.808594 79.015625 128.707031 79.101562 C 128.527344 79.253906 128.511719 79.375 128.664062 79.5625 C 128.761719 79.683594 128.78125 79.804688 128.765625 79.945312 C 128.734375 80.253906 128.632812 80.523438 128.371094 80.710938 C 128.320312 80.75 128.277344 80.792969 128.234375 80.84375 C 128.183594 80.894531 128.175781 80.960938 128.210938 81.019531 C 128.261719 81.097656 128.316406 81.175781 128.378906 81.246094 C 128.5 81.382812 128.632812 81.503906 128.746094 81.640625 C 128.839844 81.753906 128.917969 81.878906 128.992188 82.007812 C 129.027344 82.070312 129.050781 82.148438 128.988281 82.226562 C 128.9375 82.238281 128.875 82.253906 128.8125 82.261719 C 128.617188 82.289062 128.417969 82.3125 128.21875 82.339844 C 128.007812 82.367188 127.800781 82.390625 127.59375 82.429688 C 127.402344 82.460938 127.214844 82.511719 127.011719 82.558594 C 127.003906 82.644531 126.996094 82.730469 126.992188 82.8125 C 126.992188 83.054688 126.996094 83.296875 126.992188 83.542969 C 126.988281 83.613281 126.972656 83.683594 126.960938 83.765625 C 126.652344 83.78125 126.359375 83.792969 126.066406 83.820312 C 125.769531 83.847656 125.464844 83.839844 125.09375 83.984375 C 125.175781 84.011719 125.203125 84.027344 125.234375 84.035156 C 125.398438 84.0625 125.566406 84.09375 125.734375 84.113281 C 126.269531 84.175781 126.804688 84.183594 127.34375 84.183594 C 127.980469 84.175781 128.605469 84.234375 129.222656 84.386719 C 129.414062 84.433594 129.617188 84.433594 129.851562 84.542969 C 129.703125 84.542969 129.609375 84.542969 129.515625 84.542969 C 128.386719 84.542969 127.261719 84.542969 126.132812 84.542969 C 124.972656 84.546875 123.8125 84.542969 122.652344 84.554688 C 122.019531 84.558594 121.386719 84.589844 120.761719 84.671875 C 120.671875 84.683594 120.566406 84.675781 120.5 84.789062 C 120.582031 84.8125 120.660156 84.851562 120.738281 84.859375 C 120.949219 84.890625 121.15625 84.921875 121.367188 84.929688 C 122.085938 84.957031 122.800781 84.992188 123.515625 84.996094 C 129.429688 85 135.34375 85 141.257812 84.992188 C 141.898438 84.992188 142.542969 84.957031 143.183594 84.925781 C 143.382812 84.921875 143.582031 84.890625 143.78125 84.863281 C 143.859375 84.851562 143.9375 84.816406 144.019531 84.792969 C 143.957031 84.664062 143.851562 84.679688 143.761719 84.667969 Z M 132.054688 73.964844 Z M 132.121094 73.800781 C 132.105469 73.839844 132.089844 73.875 132.078125 73.910156 C 132.078125 73.867188 132.082031 73.824219 132.121094 73.800781 Z M 135.3125 70.417969 C 135.035156 70.417969 134.769531 70.421875 134.511719 70.417969 C 134.46875 70.417969 134.429688 70.40625 134.367188 70.394531 C 134.609375 68.703125 134.890625 67.027344 135.136719 65.347656 C 135.148438 65.28125 135.160156 65.210938 135.21875 65.085938 C 135.261719 66.863281 135.304688 68.574219 135.34375 70.289062 C 135.347656 70.316406 135.332031 70.347656 135.3125 70.417969 Z M 136.414062 70.273438 C 136.417969 70.300781 136.402344 70.332031 136.398438 70.359375 C 136.175781 70.417969 135.871094 70.421875 135.503906 70.382812 C 135.492188 70.332031 135.46875 70.277344 135.460938 70.21875 C 135.453125 70.125 135.449219 70.027344 135.449219 69.933594 C 135.417969 68.601562 135.382812 67.269531 135.351562 65.9375 C 135.34375 65.695312 135.335938 65.453125 135.324219 65.210938 C 135.34375 65.214844 135.359375 65.21875 135.359375 65.222656 C 135.714844 66.90625 136.0625 68.585938 136.414062 70.273438 Z M 138.203125 65.199219 C 138.21875 65.199219 138.234375 65.195312 138.246094 65.195312 C 138.257812 65.242188 138.273438 65.289062 138.28125 65.339844 C 138.613281 66.953125 138.941406 68.570312 139.273438 70.183594 C 139.277344 70.214844 139.269531 70.246094 139.265625 70.300781 C 138.972656 70.394531 138.671875 70.324219 138.359375 70.351562 C 138.347656 70.246094 138.332031 70.179688 138.328125 70.109375 C 138.304688 69.292969 138.285156 68.480469 138.261719 67.664062 C 138.242188 66.921875 138.222656 66.183594 138.203125 65.441406 C 138.203125 65.363281 138.203125 65.28125 138.203125 65.199219 Z M 138.0625 65.148438 C 138.070312 65.210938 138.082031 65.277344 138.085938 65.339844 C 138.101562 65.816406 138.117188 66.292969 138.132812 66.769531 C 138.160156 67.839844 138.183594 68.90625 138.207031 69.976562 C 138.210938 70.089844 138.230469 70.207031 138.183594 70.3125 C 137.945312 70.363281 137.582031 70.375 137.257812 70.335938 C 137.21875 70.238281 137.253906 70.132812 137.269531 70.035156 C 137.335938 69.585938 137.414062 69.136719 137.480469 68.6875 C 137.621094 67.789062 137.757812 66.890625 137.898438 65.992188 C 137.941406 65.710938 137.984375 65.429688 138.0625 65.148438 Z M 127.511719 82.617188 L 127.515625 82.601562 L 127.535156 82.609375 Z M 131.230469 81.503906 C 131.050781 81.148438 130.871094 80.792969 130.714844 80.476562 C 130.769531 79.71875 130.816406 79.007812 130.871094 78.21875 C 130.921875 78.320312 130.953125 78.355469 130.957031 78.398438 C 131.015625 78.738281 131.078125 79.082031 130.996094 79.433594 C 130.914062 79.789062 130.9375 80.144531 131.03125 80.496094 C 131.09375 80.730469 131.148438 80.96875 131.207031 81.207031 C 131.230469 81.304688 131.265625 81.402344 131.230469 81.503906 Z M 130.972656 75.863281 C 130.960938 75.867188 130.949219 75.875 130.941406 75.882812 C 130.9375 75.867188 130.9375 75.851562 130.9375 75.839844 C 130.949219 75.847656 130.957031 75.855469 130.972656 75.863281 Z M 127.527344 73.976562 C 127.464844 73.835938 127.390625 73.710938 127.257812 73.636719 C 127.160156 73.582031 127.097656 73.507812 127.085938 73.386719 C 127.078125 73.320312 127.035156 73.246094 126.992188 73.191406 C 126.726562 72.855469 126.964844 72.324219 127.394531 72.328125 C 127.414062 72.328125 127.433594 72.316406 127.453125 72.308594 C 127.378906 72.089844 127.207031 71.980469 127.003906 72.046875 C 126.867188 72.089844 126.738281 72.167969 126.59375 72.238281 C 126.558594 72.210938 126.519531 72.171875 126.476562 72.148438 C 126.429688 72.128906 126.378906 72.121094 126.3125 72.101562 C 126.460938 72.003906 126.5 71.859375 126.5 71.707031 C 126.488281 71.296875 126.613281 70.914062 126.726562 70.53125 C 126.925781 69.871094 127.15625 69.222656 127.429688 68.589844 C 127.554688 68.296875 127.648438 67.992188 127.765625 67.699219 C 127.859375 67.472656 127.953125 67.246094 128.070312 67.035156 C 128.375 66.503906 128.691406 65.976562 129.007812 65.449219 C 129.023438 65.425781 129.046875 65.402344 129.078125 65.363281 C 129.253906 65.496094 129.382812 65.644531 129.328125 65.894531 C 129.28125 65.90625 129.222656 65.902344 129.191406 65.933594 C 129.160156 65.964844 129.140625 66.023438 129.140625 66.074219 C 129.132812 66.199219 129.195312 66.304688 129.28125 66.382812 C 129.410156 66.503906 129.453125 66.640625 129.40625 66.8125 C 129.390625 66.863281 129.386719 66.917969 129.382812 66.96875 C 129.375 67.113281 129.425781 67.148438 129.578125 67.121094 C 129.609375 67.113281 129.640625 67.101562 129.671875 67.089844 C 129.78125 67.265625 129.757812 67.441406 129.703125 67.628906 C 129.46875 68.441406 129.261719 69.261719 129.121094 70.097656 C 129.082031 70.316406 129.050781 70.539062 129.027344 70.757812 C 128.96875 71.28125 129.035156 71.796875 129.179688 72.300781 C 129.449219 73.253906 129.835938 74.152344 130.410156 74.96875 C 130.550781 75.167969 130.683594 75.371094 130.816406 75.574219 C 130.859375 75.648438 130.886719 75.734375 130.921875 75.8125 C 130.859375 75.75 130.800781 75.691406 130.742188 75.625 C 130.714844 75.59375 130.691406 75.558594 130.660156 75.527344 C 130.03125 74.910156 129.648438 74.132812 129.296875 73.335938 C 129.257812 73.246094 129.246094 73.132812 129.121094 73.050781 C 129.113281 73.109375 129.105469 73.144531 129.105469 73.179688 C 129.113281 73.734375 129.179688 74.277344 129.371094 74.800781 C 129.515625 75.1875 129.621094 75.589844 129.738281 75.980469 C 129.839844 76.3125 129.847656 76.644531 129.769531 76.984375 C 129.707031 77.261719 129.667969 77.546875 129.613281 77.824219 C 129.589844 77.964844 129.605469 78.097656 129.671875 78.226562 C 129.753906 78.390625 129.835938 78.554688 129.910156 78.726562 C 129.890625 78.738281 129.875 78.75 129.855469 78.761719 C 129.066406 77.171875 128.261719 75.589844 127.527344 73.976562 Z M 132.464844 83.144531 C 132.382812 83.140625 132.304688 83.144531 132.183594 83.144531 C 132.253906 83.265625 132.320312 83.347656 132.355469 83.441406 C 132.359375 83.457031 132.363281 83.472656 132.367188 83.488281 L 132.246094 83.515625 C 132.164062 83.371094 132.097656 83.210938 132.035156 83.050781 C 132.175781 83.011719 132.300781 83.042969 132.425781 83.058594 C 132.601562 83.082031 132.777344 83.078125 132.957031 83.042969 C 133.761719 82.878906 134.566406 82.71875 135.371094 82.558594 C 135.433594 82.546875 135.496094 82.527344 135.554688 82.511719 C 135.601562 82.5 135.648438 82.460938 135.707031 82.480469 C 135.675781 82.597656 135.574219 82.589844 135.503906 82.609375 C 135.289062 82.660156 135.070312 82.703125 134.855469 82.746094 C 134.289062 82.859375 133.71875 82.96875 133.152344 83.089844 C 132.921875 83.140625 132.695312 83.160156 132.464844 83.144531 Z M 132.464844 83.144531 "/>
</g>
<path style=" stroke:none;fill-rule:nonzero;fill:rgb(0.392157%,0.392157%,6.666667%);fill-opacity:1;" d="M 138.074219 85.382812 C 137.421875 85.351562 136.769531 85.339844 136.113281 85.339844 C 133.523438 85.332031 130.929688 85.332031 128.335938 85.339844 C 127.453125 85.339844 126.566406 85.351562 125.683594 85.433594 C 125.507812 85.449219 125.335938 85.472656 125.167969 85.53125 C 125.179688 85.628906 125.25 85.636719 125.308594 85.640625 C 125.726562 85.679688 126.144531 85.738281 126.566406 85.753906 C 127.335938 85.777344 128.105469 85.78125 128.875 85.785156 C 130.625 85.789062 132.375 85.789062 134.121094 85.785156 C 135.375 85.78125 136.628906 85.773438 137.882812 85.757812 C 138.335938 85.75 138.789062 85.71875 139.238281 85.636719 C 139.285156 85.628906 139.34375 85.628906 139.367188 85.523438 C 139.304688 85.507812 139.257812 85.488281 139.207031 85.484375 C 138.828125 85.445312 138.453125 85.394531 138.074219 85.382812 Z M 138.074219 85.382812 "/>
<g clip-path="url(#clip3)" clip-rule="nonzero">
<path style=" stroke:none;fill-rule:nonzero;fill:rgb(0.392157%,0.392157%,6.666667%);fill-opacity:1;" d="M 134.367188 86.203125 C 132.960938 86.105469 131.554688 86.113281 130.144531 86.203125 C 129.980469 86.214844 129.816406 86.25 129.648438 86.28125 C 129.625 86.285156 129.589844 86.328125 129.589844 86.34375 C 129.597656 86.382812 129.621094 86.433594 129.648438 86.441406 C 129.78125 86.472656 129.914062 86.507812 130.050781 86.515625 C 130.511719 86.542969 130.972656 86.574219 131.433594 86.582031 C 131.992188 86.59375 132.550781 86.59375 133.105469 86.582031 C 133.570312 86.574219 134.03125 86.542969 134.492188 86.515625 C 134.609375 86.507812 134.722656 86.484375 134.835938 86.457031 C 134.878906 86.445312 134.917969 86.402344 134.976562 86.363281 C 134.917969 86.324219 134.878906 86.277344 134.835938 86.269531 C 134.683594 86.238281 134.527344 86.214844 134.367188 86.203125 Z M 134.367188 86.203125 "/>
</g>
<path style=" stroke:none;fill-rule:nonzero;fill:rgb(32.156864%,44.313726%,100%);fill-opacity:1;" d="M 49.8125 64.960938 C 49.066406 64.960938 48.457031 64.734375 47.988281 64.28125 C 47.519531 63.824219 47.285156 63.234375 47.285156 62.515625 C 47.285156 61.808594 47.519531 61.230469 47.988281 60.777344 C 48.457031 60.320312 49.066406 60.089844 49.8125 60.089844 C 50.3125 60.089844 50.753906 60.199219 51.144531 60.410156 C 51.535156 60.617188 51.835938 60.902344 52.050781 61.265625 C 52.265625 61.632812 52.375 62.046875 52.375 62.515625 C 52.375 62.984375 52.265625 63.40625 52.050781 63.777344 C 51.835938 64.144531 51.535156 64.4375 51.144531 64.648438 C 50.753906 64.855469 50.3125 64.960938 49.8125 64.960938 Z M 46.652344 90.457031 C 45.4375 90.457031 44.457031 90.300781 43.71875 89.980469 L 44.226562 86.714844 L 44.515625 86.625 C 44.910156 86.816406 45.378906 86.910156 45.917969 86.910156 C 47.136719 86.910156 47.75 86.191406 47.75 84.753906 L 47.75 66.933594 L 51.894531 66.933594 L 51.894531 84.632812 C 51.894531 86.558594 51.449219 88.011719 50.5625 88.988281 C 49.675781 89.96875 48.371094 90.457031 46.652344 90.457031 Z M 46.652344 90.457031 "/>
<path style=" stroke:none;fill-rule:nonzero;fill:rgb(32.156864%,44.313726%,100%);fill-opacity:1;" d="M 61.824219 83.761719 C 59.964844 83.761719 58.59375 83.257812 57.710938 82.246094 C 56.828125 81.234375 56.386719 79.777344 56.386719 77.882812 L 56.386719 66.933594 L 60.535156 66.933594 L 60.535156 77.355469 C 60.535156 78.367188 60.75 79.101562 61.183594 79.566406 C 61.617188 80.03125 62.292969 80.261719 63.203125 80.261719 C 64.351562 80.261719 65.242188 79.886719 65.878906 79.132812 C 66.519531 78.378906 66.84375 77.191406 66.84375 75.574219 L 66.84375 66.933594 L 70.988281 66.933594 L 70.988281 83.453125 L 67.007812 83.453125 L 67.007812 81.027344 L 66.6875 80.953125 C 66.164062 81.898438 65.515625 82.605469 64.753906 83.070312 C 63.988281 83.53125 63.015625 83.761719 61.824219 83.761719 Z M 61.824219 83.761719 "/>
<path style=" stroke:none;fill-rule:nonzero;fill:rgb(32.156864%,44.313726%,100%);fill-opacity:1;" d="M 81.097656 83.761719 C 79.964844 83.761719 78.929688 83.632812 77.992188 83.371094 C 77.058594 83.105469 76.257812 82.742188 75.589844 82.273438 C 74.925781 81.808594 74.433594 81.28125 74.113281 80.683594 L 76.425781 78.195312 L 76.738281 78.195312 C 77.289062 78.9375 77.9375 79.492188 78.683594 79.863281 C 79.433594 80.230469 80.242188 80.414062 81.121094 80.414062 C 81.929688 80.414062 82.539062 80.269531 82.949219 79.976562 C 83.359375 79.6875 83.566406 79.273438 83.566406 78.734375 C 83.566406 78.316406 83.417969 77.964844 83.125 77.679688 C 82.832031 77.398438 82.351562 77.171875 81.691406 77.015625 L 79.503906 76.488281 C 77.867188 76.101562 76.671875 75.503906 75.914062 74.699219 C 75.164062 73.894531 74.789062 72.875 74.789062 71.636719 C 74.789062 70.605469 75.050781 69.714844 75.574219 68.960938 C 76.101562 68.199219 76.835938 67.621094 77.789062 67.21875 C 78.746094 66.820312 79.855469 66.621094 81.121094 66.621094 C 82.613281 66.621094 83.84375 66.835938 84.820312 67.261719 C 85.800781 67.691406 86.5625 68.265625 87.113281 68.984375 L 84.902344 71.378906 L 84.601562 71.378906 C 84.140625 70.859375 83.621094 70.484375 83.046875 70.246094 C 82.472656 70.003906 81.832031 69.882812 81.121094 69.882812 C 79.484375 69.882812 78.667969 70.394531 78.667969 71.410156 C 78.667969 71.839844 78.820312 72.191406 79.125 72.464844 C 79.433594 72.734375 79.96875 72.953125 80.738281 73.117188 L 82.769531 73.566406 C 84.449219 73.925781 85.671875 74.503906 86.445312 75.300781 C 87.21875 76.09375 87.609375 77.15625 87.609375 78.496094 C 87.609375 79.542969 87.347656 80.464844 86.832031 81.265625 C 86.3125 82.066406 85.5625 82.683594 84.582031 83.113281 C 83.605469 83.546875 82.445312 83.761719 81.097656 83.761719 Z M 81.097656 83.761719 "/>
<path style=" stroke:none;fill-rule:nonzero;fill:rgb(32.156864%,44.313726%,100%);fill-opacity:1;" d="M 99.996094 79.511719 L 101.074219 82.582031 C 100.621094 82.953125 100.058594 83.242188 99.375 83.453125 C 98.699219 83.660156 97.929688 83.761719 97.074219 83.761719 C 95.285156 83.761719 93.925781 83.277344 92.996094 82.304688 C 92.066406 81.335938 91.605469 79.921875 91.605469 78.0625 L 91.605469 70.214844 L 89.09375 70.214844 L 89.09375 66.917969 L 91.605469 66.917969 L 91.605469 63.699219 L 95.757812 63.023438 L 95.757812 66.917969 L 100.441406 66.917969 L 100.441406 70.214844 L 95.757812 70.214844 L 95.757812 77.761719 C 95.757812 78.578125 95.925781 79.175781 96.265625 79.550781 C 96.601562 79.925781 97.097656 80.113281 97.746094 80.113281 C 98.484375 80.113281 99.128906 79.914062 99.675781 79.511719 Z M 99.996094 79.511719 "/>
<path style=" stroke:none;fill-rule:nonzero;fill:rgb(32.156864%,44.313726%,100%);fill-opacity:1;" d="M 105.875 64.960938 C 105.128906 64.960938 104.519531 64.734375 104.050781 64.28125 C 103.582031 63.824219 103.347656 63.234375 103.347656 62.515625 C 103.347656 61.808594 103.582031 61.230469 104.050781 60.777344 C 104.519531 60.320312 105.128906 60.089844 105.875 60.089844 C 106.375 60.089844 106.816406 60.199219 107.203125 60.410156 C 107.597656 60.617188 107.898438 60.902344 108.113281 61.265625 C 108.328125 61.632812 108.4375 62.046875 108.4375 62.515625 C 108.4375 62.984375 108.328125 63.40625 108.113281 63.777344 C 107.898438 64.144531 107.597656 64.4375 107.203125 64.648438 C 106.816406 64.855469 106.375 64.960938 105.875 64.960938 Z M 103.8125 83.453125 L 103.8125 66.933594 L 107.957031 66.933594 L 107.957031 83.453125 Z M 103.8125 83.453125 "/>
<path style=" stroke:none;fill-rule:nonzero;fill:rgb(4.705882%,75.294119%,87.450981%);fill-opacity:1;" d="M 113.21875 83.453125 L 113.21875 70.214844 L 110.878906 70.214844 L 110.878906 66.917969 L 113.21875 66.917969 C 113.046875 66.222656 112.960938 65.570312 112.960938 64.960938 C 112.960938 63.910156 113.199219 63.015625 113.679688 62.269531 C 114.160156 61.527344 114.847656 60.964844 115.75 60.574219 C 116.644531 60.183594 117.714844 59.988281 118.953125 59.988281 C 120.78125 59.988281 122.144531 60.300781 123.042969 60.929688 L 122.070312 63.984375 L 121.75 64.046875 C 121.132812 63.605469 120.34375 63.386719 119.375 63.386719 C 118.621094 63.386719 118.058594 63.566406 117.683594 63.929688 C 117.3125 64.296875 117.125 64.792969 117.125 65.417969 C 117.125 65.6875 117.140625 65.9375 117.175781 66.160156 C 117.210938 66.386719 117.273438 66.636719 117.367188 66.917969 L 122.082031 66.917969 L 122.082031 70.214844 L 117.367188 70.214844 L 117.367188 83.453125 Z M 113.21875 83.453125 "/>
</g>
</svg>
