<svg xmlns="http://www.w3.org/2000/svg" xmlns:xlink="http://www.w3.org/1999/xlink" width="500" zoomAndPan="magnify" viewBox="0 0 375 374.999991" height="500" preserveAspectRatio="xMidYMid meet" version="1.0"><defs><g/><clipPath id="af3a6b6146"><path d="M 6.140625 142.171875 L 102 142.171875 L 102 238.171875 L 6.140625 238.171875 Z M 6.140625 142.171875 " clip-rule="nonzero"/></clipPath><clipPath id="1f45d9dd27"><path d="M 307.398438 142.171875 L 367.398438 142.171875 L 367.398438 217 L 307.398438 217 Z M 307.398438 142.171875 " clip-rule="nonzero"/></clipPath><clipPath id="d899daa568"><path d="M 330 219 L 345 219 L 345 220.921875 L 330 220.921875 Z M 330 219 " clip-rule="nonzero"/></clipPath></defs><g clip-path="url(#af3a6b6146)"><path fill="#5ce1e6" d="M 101.976562 190.089844 C 101.976562 191.660156 101.898438 193.222656 101.746094 194.785156 C 101.59375 196.347656 101.363281 197.898438 101.054688 199.4375 C 100.75 200.976562 100.367188 202.496094 99.914062 204 C 99.457031 205.5 98.929688 206.976562 98.328125 208.425781 C 97.730469 209.875 97.058594 211.292969 96.320312 212.675781 C 95.578125 214.0625 94.773438 215.40625 93.902344 216.710938 C 93.027344 218.015625 92.09375 219.273438 91.101562 220.488281 C 90.105469 221.699219 89.050781 222.863281 87.941406 223.972656 C 86.832031 225.082031 85.671875 226.132812 84.457031 227.128906 C 83.246094 228.125 81.984375 229.058594 80.679688 229.929688 C 79.375 230.804688 78.03125 231.609375 76.648438 232.347656 C 75.261719 233.089844 73.847656 233.757812 72.394531 234.359375 C 70.945312 234.960938 69.46875 235.488281 67.96875 235.945312 C 66.46875 236.398438 64.945312 236.78125 63.40625 237.085938 C 61.867188 237.390625 60.316406 237.621094 58.753906 237.777344 C 57.195312 237.929688 55.628906 238.007812 54.058594 238.007812 C 52.488281 238.007812 50.925781 237.929688 49.363281 237.777344 C 47.800781 237.621094 46.25 237.390625 44.710938 237.085938 C 43.171875 236.78125 41.652344 236.398438 40.148438 235.945312 C 38.648438 235.488281 37.171875 234.960938 35.722656 234.359375 C 34.269531 233.757812 32.855469 233.089844 31.46875 232.347656 C 30.085938 231.609375 28.742188 230.804688 27.4375 229.929688 C 26.132812 229.058594 24.875 228.125 23.660156 227.128906 C 22.445312 226.132812 21.285156 225.082031 20.175781 223.972656 C 19.066406 222.863281 18.011719 221.699219 17.019531 220.488281 C 16.023438 219.273438 15.089844 218.015625 14.214844 216.710938 C 13.34375 215.40625 12.539062 214.0625 11.800781 212.675781 C 11.058594 211.292969 10.390625 209.875 9.789062 208.425781 C 9.1875 206.976562 8.660156 205.5 8.203125 204 C 7.75 202.496094 7.367188 200.976562 7.0625 199.4375 C 6.753906 197.898438 6.527344 196.347656 6.371094 194.785156 C 6.21875 193.222656 6.140625 191.660156 6.140625 190.089844 C 6.140625 188.519531 6.21875 186.953125 6.371094 185.390625 C 6.527344 183.832031 6.753906 182.28125 7.0625 180.742188 C 7.367188 179.203125 7.75 177.679688 8.203125 176.179688 C 8.660156 174.675781 9.1875 173.203125 9.789062 171.75 C 10.390625 170.300781 11.058594 168.882812 11.800781 167.5 C 12.539062 166.117188 13.34375 164.773438 14.214844 163.46875 C 15.089844 162.164062 16.023438 160.902344 17.019531 159.691406 C 18.011719 158.476562 19.066406 157.316406 20.175781 156.207031 C 21.285156 155.097656 22.445312 154.042969 23.660156 153.046875 C 24.875 152.050781 26.132812 151.117188 27.4375 150.246094 C 28.742188 149.375 30.085938 148.570312 31.46875 147.828125 C 32.855469 147.089844 34.269531 146.417969 35.722656 145.820312 C 37.171875 145.21875 38.648438 144.691406 40.148438 144.234375 C 41.652344 143.777344 43.171875 143.398438 44.710938 143.089844 C 46.25 142.785156 47.800781 142.554688 49.363281 142.402344 C 50.925781 142.246094 52.488281 142.171875 54.058594 142.171875 C 55.628906 142.171875 57.195312 142.246094 58.753906 142.402344 C 60.316406 142.554688 61.867188 142.785156 63.40625 143.089844 C 64.945312 143.398438 66.46875 143.777344 67.96875 144.234375 C 69.46875 144.691406 70.945312 145.21875 72.394531 145.820312 C 73.847656 146.417969 75.261719 147.089844 76.648438 147.828125 C 78.03125 148.570312 79.375 149.375 80.679688 150.246094 C 81.984375 151.117188 83.246094 152.050781 84.457031 153.046875 C 85.671875 154.042969 86.832031 155.097656 87.941406 156.207031 C 89.050781 157.316406 90.105469 158.476562 91.101562 159.691406 C 92.09375 160.902344 93.027344 162.164062 93.902344 163.46875 C 94.773438 164.773438 95.578125 166.117188 96.320312 167.5 C 97.058594 168.882812 97.730469 170.300781 98.328125 171.75 C 98.929688 173.203125 99.457031 174.675781 99.914062 176.179688 C 100.367188 177.679688 100.75 179.203125 101.054688 180.742188 C 101.363281 182.28125 101.59375 183.832031 101.746094 185.390625 C 101.898438 186.953125 101.976562 188.519531 101.976562 190.089844 Z M 101.976562 190.089844 " fill-opacity="1" fill-rule="nonzero"/></g><path fill="#000000" d="M 56.019531 206.726562 L 52.0625 206.726562 C 51.691406 206.726562 51.386719 206.421875 51.386719 206.050781 L 51.386719 176.460938 C 51.386719 176.222656 51.523438 175.988281 51.757812 175.886719 C 51.996094 175.75 52.265625 175.785156 52.46875 175.917969 C 53.382812 176.597656 54.703125 176.597656 55.648438 175.917969 C 55.851562 175.785156 56.121094 175.75 56.324219 175.886719 C 56.5625 175.988281 56.695312 176.222656 56.695312 176.460938 L 56.695312 206.050781 C 56.695312 206.421875 56.390625 206.726562 56.019531 206.726562 Z M 52.738281 205.375 L 55.34375 205.375 L 55.34375 177.578125 C 54.53125 177.847656 53.585938 177.847656 52.738281 177.578125 Z M 52.738281 205.375 " fill-opacity="1" fill-rule="evenodd"/><path fill="#000000" d="M 65.523438 213.828125 L 42.5625 213.828125 C 42.1875 213.828125 41.886719 213.523438 41.886719 213.152344 L 41.886719 209.160156 C 41.886719 208.789062 42.1875 208.484375 42.5625 208.484375 L 65.523438 208.484375 C 65.894531 208.484375 66.199219 208.789062 66.199219 209.160156 L 66.199219 213.152344 C 66.199219 213.523438 65.894531 213.828125 65.523438 213.828125 Z M 43.238281 212.476562 L 64.847656 212.476562 L 64.847656 209.835938 L 43.238281 209.835938 Z M 43.238281 212.476562 " fill-opacity="1" fill-rule="evenodd"/><path fill="#000000" d="M 62.546875 209.835938 L 45.535156 209.835938 C 45.164062 209.835938 44.859375 209.535156 44.859375 209.160156 L 44.859375 207.605469 C 44.859375 206.386719 45.875 205.375 47.09375 205.375 L 60.992188 205.375 C 62.242188 205.375 63.222656 206.386719 63.222656 207.605469 L 63.222656 209.160156 C 63.222656 209.535156 62.917969 209.835938 62.546875 209.835938 Z M 46.214844 208.484375 L 61.871094 208.484375 L 61.871094 207.605469 C 61.871094 207.132812 61.5 206.726562 60.992188 206.726562 L 47.09375 206.726562 C 46.621094 206.726562 46.214844 207.132812 46.214844 207.605469 Z M 46.214844 208.484375 " fill-opacity="1" fill-rule="evenodd"/><path fill="#000000" d="M 54.058594 177.78125 C 51.792969 177.78125 49.96875 175.953125 49.96875 173.722656 C 49.96875 171.488281 51.792969 169.664062 54.058594 169.664062 C 56.289062 169.664062 58.117188 171.488281 58.117188 173.722656 C 58.117188 175.953125 56.289062 177.78125 54.058594 177.78125 Z M 54.058594 171.015625 C 52.535156 171.015625 51.320312 172.234375 51.320312 173.722656 C 51.320312 175.210938 52.535156 176.425781 54.058594 176.425781 C 55.546875 176.425781 56.765625 175.210938 56.765625 173.722656 C 56.765625 172.234375 55.546875 171.015625 54.058594 171.015625 Z M 54.058594 171.015625 " fill-opacity="1" fill-rule="evenodd"/><path fill="#000000" d="M 73.4375 178.589844 C 71.339844 178.558594 68.226562 177.882812 65.691406 176.15625 C 64.507812 175.34375 63.492188 174.972656 62.480469 174.972656 C 61.601562 174.972656 60.789062 175.210938 59.839844 175.515625 C 58.996094 175.785156 58.082031 176.054688 57 176.191406 C 56.730469 176.222656 56.492188 176.089844 56.359375 175.886719 C 56.222656 175.648438 56.222656 175.378906 56.359375 175.175781 C 56.628906 174.734375 56.765625 174.230469 56.765625 173.722656 C 56.765625 173.113281 56.5625 172.539062 56.1875 172.066406 C 56.054688 171.894531 56.019531 171.691406 56.054688 171.488281 C 56.085938 171.285156 56.222656 171.117188 56.425781 171.015625 C 57.101562 170.710938 58.894531 169.933594 61.125 169.933594 C 62.785156 169.933594 64.339844 170.339844 65.757812 171.183594 C 66.875 171.792969 67.855469 172.367188 68.667969 172.84375 C 71.203125 174.332031 72.554688 175.140625 73.941406 175.582031 C 74.144531 175.648438 74.316406 175.816406 74.382812 176.019531 C 74.449219 176.191406 74.417969 176.425781 74.316406 176.597656 C 74.144531 176.832031 74.042969 177.136719 74.042969 177.40625 C 74.042969 177.507812 74.078125 177.578125 74.078125 177.679688 C 74.113281 177.746094 74.113281 177.847656 74.113281 177.914062 C 74.113281 178.285156 73.839844 178.589844 73.4375 178.589844 Z M 62.480469 173.621094 C 63.796875 173.621094 65.050781 174.058594 66.4375 175.039062 C 68.464844 176.394531 70.933594 177.035156 72.726562 177.203125 C 72.726562 177 72.757812 176.800781 72.828125 176.597656 C 71.542969 176.089844 70.1875 175.3125 67.992188 174.027344 C 67.179688 173.550781 66.199219 172.976562 65.082031 172.335938 C 63.867188 171.660156 62.546875 171.285156 61.125 171.285156 C 59.707031 171.285156 58.488281 171.660156 57.710938 171.964844 C 57.980469 172.503906 58.117188 173.113281 58.117188 173.722656 C 58.117188 174.027344 58.082031 174.332031 58.015625 174.632812 C 58.488281 174.5 58.960938 174.363281 59.4375 174.230469 C 60.449219 173.890625 61.398438 173.621094 62.480469 173.621094 Z M 62.480469 173.621094 " fill-opacity="1" fill-rule="evenodd"/><path fill="#000000" d="M 34.683594 178.589844 C 34.480469 178.589844 34.277344 178.523438 34.140625 178.355469 C 34.003906 178.183594 33.972656 177.984375 34.003906 177.78125 C 34.039062 177.679688 34.039062 177.578125 34.039062 177.507812 C 34.039062 177.171875 33.9375 176.902344 33.769531 176.628906 C 33.632812 176.460938 33.601562 176.222656 33.667969 176.019531 C 33.734375 175.816406 33.902344 175.683594 34.105469 175.617188 L 34.175781 175.582031 C 35.527344 175.140625 36.914062 174.332031 39.417969 172.84375 C 40.261719 172.367188 41.207031 171.792969 42.324219 171.183594 C 43.746094 170.375 45.300781 169.933594 46.957031 169.933594 C 49.222656 169.933594 51.015625 170.710938 51.691406 171.015625 C 51.859375 171.117188 51.996094 171.285156 52.03125 171.488281 C 52.097656 171.691406 52.03125 171.894531 51.894531 172.066406 C 51.523438 172.539062 51.320312 173.113281 51.320312 173.722656 C 51.320312 174.195312 51.453125 174.667969 51.691406 175.074219 C 51.792969 175.210938 51.859375 175.34375 51.859375 175.515625 C 51.859375 175.886719 51.554688 176.191406 51.183594 176.191406 C 51.152344 176.191406 51.117188 176.191406 51.082031 176.191406 C 50.035156 176.054688 49.085938 175.785156 48.242188 175.515625 C 47.328125 175.210938 46.519531 174.972656 45.636719 174.972656 C 44.589844 174.972656 43.574219 175.34375 42.425781 176.15625 C 39.890625 177.882812 36.777344 178.558594 34.683594 178.589844 Z M 35.257812 176.628906 C 35.324219 176.800781 35.359375 177 35.359375 177.203125 C 37.152344 177.035156 39.652344 176.394531 41.648438 175.039062 C 43.035156 174.058594 44.320312 173.621094 45.636719 173.621094 C 46.71875 173.621094 47.667969 173.890625 48.648438 174.230469 C 49.121094 174.363281 49.59375 174.5 50.101562 174.632812 C 50.035156 174.332031 50 174.027344 50 173.722656 C 50 173.113281 50.136719 172.503906 50.40625 171.964844 C 49.59375 171.660156 48.410156 171.285156 46.957031 171.285156 C 45.535156 171.285156 44.21875 171.660156 43 172.335938 C 41.886719 172.976562 40.9375 173.550781 40.09375 174.027344 C 37.894531 175.3125 36.542969 176.089844 35.257812 176.628906 Z M 35.257812 176.628906 " fill-opacity="1" fill-rule="evenodd"/><path fill="#000000" d="M 75.53125 180.25 C 73.976562 180.25 72.691406 178.996094 72.691406 177.40625 C 72.691406 175.851562 73.976562 174.601562 75.53125 174.601562 C 77.085938 174.601562 78.371094 175.851562 78.371094 177.40625 C 78.371094 178.996094 77.085938 180.25 75.53125 180.25 Z M 75.53125 175.953125 C 74.71875 175.953125 74.042969 176.597656 74.042969 177.40625 C 74.042969 178.21875 74.71875 178.894531 75.53125 178.894531 C 76.34375 178.894531 77.019531 178.21875 77.019531 177.40625 C 77.019531 176.597656 76.34375 175.953125 75.53125 175.953125 Z M 75.53125 175.953125 " fill-opacity="1" fill-rule="evenodd"/><path fill="#000000" d="M 32.550781 180.316406 C 30.996094 180.316406 29.746094 179.066406 29.746094 177.507812 C 29.746094 175.917969 30.996094 174.667969 32.550781 174.667969 C 34.105469 174.667969 35.390625 175.917969 35.390625 177.507812 C 35.390625 179.066406 34.105469 180.316406 32.550781 180.316406 Z M 32.550781 176.019531 C 31.738281 176.019531 31.097656 176.664062 31.097656 177.507812 C 31.097656 178.320312 31.738281 178.964844 32.550781 178.964844 C 33.363281 178.964844 34.039062 178.320312 34.039062 177.507812 C 34.039062 176.664062 33.363281 176.019531 32.550781 176.019531 Z M 32.550781 176.019531 " fill-opacity="1" fill-rule="evenodd"/><path fill="#000000" d="M 32.550781 203.140625 C 28.492188 203.140625 25.179688 199.828125 25.179688 195.769531 L 25.179688 195.09375 C 25.179688 194.722656 25.484375 194.417969 25.855469 194.417969 L 39.246094 194.417969 C 39.621094 194.417969 39.921875 194.722656 39.921875 195.09375 L 39.921875 195.769531 C 39.921875 199.828125 36.609375 203.140625 32.550781 203.140625 Z M 26.53125 195.769531 C 26.53125 199.085938 29.238281 201.789062 32.550781 201.789062 C 35.867188 201.789062 38.570312 199.085938 38.570312 195.769531 Z M 26.53125 195.769531 " fill-opacity="1" fill-rule="evenodd"/><path fill="#000000" d="M 38.132812 195.769531 L 27.003906 195.769531 C 26.769531 195.769531 26.566406 195.667969 26.464844 195.5 C 26.328125 195.296875 26.296875 195.09375 26.363281 194.855469 L 31.910156 179.402344 C 32.011719 179.167969 32.28125 178.964844 32.550781 178.964844 C 32.855469 178.964844 33.09375 179.167969 33.195312 179.402344 L 38.707031 194.789062 C 38.773438 194.855469 38.808594 194.992188 38.808594 195.09375 C 38.808594 195.464844 38.503906 195.769531 38.132812 195.769531 Z M 27.953125 194.417969 L 37.152344 194.417969 L 32.550781 181.636719 Z M 27.953125 194.417969 " fill-opacity="1" fill-rule="evenodd"/><path fill="#000000" d="M 75.53125 203.140625 C 71.472656 203.140625 68.160156 199.828125 68.160156 195.769531 L 68.160156 195.09375 C 68.160156 194.722656 68.464844 194.417969 68.835938 194.417969 L 82.226562 194.417969 C 82.601562 194.417969 82.902344 194.722656 82.902344 195.09375 L 82.902344 195.769531 C 82.902344 199.828125 79.589844 203.140625 75.53125 203.140625 Z M 69.511719 195.769531 C 69.511719 199.085938 72.21875 201.789062 75.53125 201.789062 C 78.847656 201.789062 81.550781 199.085938 81.550781 195.769531 Z M 69.511719 195.769531 " fill-opacity="1" fill-rule="evenodd"/><path fill="#000000" d="M 81.113281 195.769531 C 81.113281 195.769531 81.078125 195.769531 81.078125 195.769531 L 69.988281 195.769531 C 69.75 195.769531 69.546875 195.667969 69.410156 195.5 C 69.308594 195.296875 69.277344 195.09375 69.34375 194.855469 L 74.890625 179.402344 C 74.992188 179.167969 75.261719 178.964844 75.53125 178.964844 C 75.835938 178.964844 76.074219 179.167969 76.175781 179.402344 L 81.6875 194.789062 C 81.753906 194.855469 81.789062 194.992188 81.789062 195.09375 C 81.789062 195.464844 81.484375 195.769531 81.113281 195.769531 Z M 70.933594 194.417969 L 80.132812 194.417969 L 75.53125 181.636719 Z M 70.933594 194.417969 " fill-opacity="1" fill-rule="evenodd"/><path fill="#000000" d="M 55.613281 171.386719 C 55.511719 171.386719 55.378906 171.355469 55.308594 171.320312 C 54.53125 170.914062 53.585938 170.914062 52.808594 171.320312 C 52.605469 171.421875 52.367188 171.386719 52.164062 171.285156 C 51.960938 171.152344 51.828125 170.949219 51.828125 170.710938 L 51.828125 168.546875 C 51.828125 167.332031 52.839844 166.351562 54.058594 166.351562 C 55.277344 166.351562 56.289062 167.332031 56.289062 168.546875 L 56.289062 170.710938 C 56.289062 170.949219 56.15625 171.183594 55.953125 171.285156 C 55.851562 171.355469 55.714844 171.386719 55.613281 171.386719 Z M 54.058594 169.664062 C 54.328125 169.664062 54.632812 169.699219 54.9375 169.765625 L 54.9375 168.546875 C 54.9375 168.074219 54.53125 167.703125 54.058594 167.703125 C 53.585938 167.703125 53.179688 168.074219 53.179688 168.546875 L 53.179688 169.765625 C 53.484375 169.699219 53.753906 169.664062 54.058594 169.664062 Z M 54.058594 169.664062 " fill-opacity="1" fill-rule="evenodd"/><path fill="#000000" d="M 43.238281 209.835938 L 64.847656 209.835938 L 64.847656 212.476562 L 43.238281 212.476562 Z M 43.238281 209.835938 " fill-opacity="1" fill-rule="evenodd"/><path fill="#000000" d="M 46.214844 208.484375 L 61.871094 208.484375 L 61.871094 207.605469 C 61.871094 207.132812 61.5 206.726562 60.992188 206.726562 L 47.09375 206.726562 C 46.621094 206.726562 46.214844 207.132812 46.214844 207.605469 Z M 46.214844 208.484375 " fill-opacity="1" fill-rule="evenodd"/><path fill="#000000" d="M 52.738281 205.375 L 55.34375 205.375 L 55.34375 177.578125 C 55.207031 177.609375 55.039062 177.679688 54.902344 177.710938 C 54.632812 177.746094 54.328125 177.78125 54.058594 177.78125 C 53.753906 177.78125 53.449219 177.746094 53.179688 177.710938 C 53.011719 177.679688 52.875 177.609375 52.738281 177.578125 Z M 52.738281 205.375 " fill-opacity="1" fill-rule="evenodd"/><path fill="#000000" d="M 52.773438 176.121094 C 53.550781 176.527344 54.53125 176.527344 55.308594 176.121094 C 55.75 175.886719 56.085938 175.582031 56.359375 175.175781 C 56.492188 174.90625 56.628906 174.632812 56.695312 174.332031 C 56.695312 174.296875 56.695312 174.296875 56.695312 174.296875 C 56.730469 174.128906 56.765625 173.925781 56.765625 173.722656 C 56.765625 173.113281 56.5625 172.503906 56.1875 172.066406 C 55.953125 171.761719 55.648438 171.488281 55.308594 171.320312 C 55.175781 171.253906 55.039062 171.183594 54.902344 171.152344 C 54.601562 171.050781 54.328125 171.015625 54.058594 171.015625 C 53.789062 171.015625 53.519531 171.050781 53.246094 171.117188 C 53.113281 171.183594 52.941406 171.253906 52.808594 171.320312 C 52.46875 171.488281 52.164062 171.761719 51.894531 172.066406 C 51.523438 172.539062 51.320312 173.113281 51.320312 173.722656 C 51.320312 174.230469 51.453125 174.703125 51.691406 175.074219 C 51.691406 175.074219 51.691406 175.074219 51.691406 175.109375 C 51.726562 175.140625 51.757812 175.175781 51.792969 175.242188 C 52.03125 175.617188 52.367188 175.917969 52.773438 176.121094 Z M 52.773438 176.121094 " fill-opacity="1" fill-rule="evenodd"/><path fill="#000000" d="M 54.058594 169.664062 C 54.363281 169.664062 54.632812 169.699219 54.9375 169.765625 L 54.9375 168.546875 C 54.9375 168.074219 54.53125 167.703125 54.058594 167.703125 C 53.585938 167.703125 53.179688 168.074219 53.179688 168.546875 L 53.179688 169.765625 C 53.484375 169.699219 53.753906 169.664062 54.058594 169.664062 Z M 54.058594 169.664062 " fill-opacity="1" fill-rule="evenodd"/><path fill="#000000" d="M 50.40625 171.964844 C 49.59375 171.660156 48.410156 171.285156 46.957031 171.285156 C 45.535156 171.285156 44.21875 171.660156 43 172.335938 C 41.886719 172.976562 40.9375 173.550781 40.09375 174.027344 C 37.894531 175.3125 36.542969 176.089844 35.257812 176.628906 C 35.324219 176.800781 35.359375 177 35.359375 177.203125 C 37.152344 177.035156 39.652344 176.394531 41.648438 175.039062 C 43.035156 174.058594 44.320312 173.621094 45.636719 173.621094 C 46.71875 173.621094 47.667969 173.890625 48.648438 174.230469 C 49.121094 174.363281 49.59375 174.5 50.101562 174.632812 C 50.035156 174.332031 50 174.027344 50 173.722656 C 50 173.453125 50 173.179688 50.070312 172.910156 C 50.136719 172.570312 50.238281 172.269531 50.40625 171.964844 Z M 50.40625 171.964844 " fill-opacity="1" fill-rule="evenodd"/><path fill="#000000" d="M 74.316406 176.597656 C 74.179688 176.800781 74.113281 177 74.078125 177.203125 C 74.078125 177.273438 74.042969 177.339844 74.042969 177.40625 C 74.042969 177.507812 74.078125 177.578125 74.078125 177.679688 C 74.113281 177.746094 74.113281 177.78125 74.113281 177.847656 C 74.316406 178.457031 74.890625 178.894531 75.53125 178.894531 C 76.34375 178.894531 77.019531 178.21875 77.019531 177.40625 C 77.019531 176.597656 76.34375 175.953125 75.53125 175.953125 C 75.023438 175.953125 74.585938 176.222656 74.316406 176.597656 Z M 74.316406 176.597656 " fill-opacity="1" fill-rule="evenodd"/><path fill="#000000" d="M 34.003906 177.78125 C 34.039062 177.679688 34.039062 177.609375 34.039062 177.507812 C 34.039062 177.40625 34.039062 177.304688 34.003906 177.238281 C 33.972656 177 33.871094 176.800781 33.769531 176.628906 C 33.5 176.257812 33.058594 176.019531 32.550781 176.019531 C 31.738281 176.019531 31.097656 176.664062 31.097656 177.507812 C 31.097656 178.320312 31.738281 178.964844 32.550781 178.964844 C 33.261719 178.964844 33.871094 178.457031 34.003906 177.78125 Z M 34.003906 177.78125 " fill-opacity="1" fill-rule="evenodd"/><path fill="#000000" d="M 38.132812 195.769531 L 26.53125 195.769531 C 26.53125 199.085938 29.238281 201.789062 32.550781 201.789062 C 35.867188 201.789062 38.570312 199.085938 38.570312 195.769531 Z M 38.132812 195.769531 " fill-opacity="1" fill-rule="evenodd"/><path fill="#000000" d="M 69.511719 195.769531 C 69.511719 199.085938 72.21875 201.789062 75.53125 201.789062 C 78.847656 201.789062 81.550781 199.085938 81.550781 195.769531 Z M 69.511719 195.769531 " fill-opacity="1" fill-rule="evenodd"/><path fill="#000000" d="M 59.402344 174.230469 C 60.382812 173.925781 61.363281 173.621094 62.410156 173.621094 C 63.730469 173.621094 65.015625 174.09375 66.402344 175.039062 C 68.398438 176.425781 70.898438 177.070312 72.691406 177.238281 C 72.691406 177.035156 72.726562 176.832031 72.792969 176.628906 C 71.507812 176.121094 70.15625 175.3125 67.957031 174.058594 C 67.113281 173.550781 66.164062 173.011719 65.050781 172.367188 C 63.832031 171.660156 62.511719 171.320312 61.09375 171.320312 C 59.671875 171.320312 58.453125 171.660156 57.675781 171.964844 C 57.949219 172.503906 58.082031 173.113281 58.082031 173.753906 C 58.082031 174.058594 58.050781 174.363281 57.980469 174.667969 C 58.453125 174.535156 58.929688 174.398438 59.402344 174.230469 Z M 59.402344 174.230469 " fill-opacity="1" fill-rule="evenodd"/><g clip-path="url(#1f45d9dd27)"><path fill="#010111" d="M 366.738281 215.992188 C 364.839844 215.769531 362.933594 215.675781 361.023438 215.675781 C 354.839844 215.667969 348.65625 215.667969 342.472656 215.667969 C 342.21875 215.667969 341.964844 215.667969 341.601562 215.667969 C 342.082031 215.367188 342.523438 215.394531 342.933594 215.296875 C 344.480469 214.914062 346.046875 214.703125 347.644531 214.78125 C 347.914062 214.792969 348.183594 214.785156 348.453125 214.777344 C 350.332031 214.734375 352.214844 214.765625 354.089844 214.5625 C 354.519531 214.519531 354.941406 214.445312 355.363281 214.367188 C 355.433594 214.355469 355.484375 214.246094 355.59375 214.128906 C 355.382812 214.078125 355.257812 214.035156 355.128906 214.019531 C 354.113281 213.921875 353.097656 213.808594 352.078125 213.742188 C 351.21875 213.6875 350.359375 213.691406 349.5 213.660156 C 349.289062 213.652344 349.078125 213.617188 348.835938 213.589844 C 348.703125 212.570312 348.902344 211.570312 348.753906 210.578125 C 348.015625 210.273438 347.203125 210.40625 346.472656 210.121094 C 346.570312 209.851562 346.679688 209.628906 346.726562 209.394531 C 346.914062 208.457031 346.253906 207.722656 345.320312 207.820312 C 345.027344 207.851562 344.734375 207.894531 344.441406 207.9375 C 342.554688 208.226562 340.671875 208.523438 338.785156 208.808594 C 338.601562 208.835938 338.402344 208.863281 338.222656 208.828125 C 337.195312 208.636719 336.167969 208.425781 335.140625 208.226562 C 334.96875 208.191406 334.871094 208.089844 334.789062 207.957031 C 335.625 208.183594 336.957031 208.367188 337.460938 208.308594 C 337.269531 208.171875 337.125 208.070312 336.976562 207.96875 C 336.46875 207.609375 336.15625 207.128906 336.085938 206.5 C 336.046875 206.15625 335.972656 205.808594 335.972656 205.460938 C 335.976562 204.996094 335.804688 204.632812 335.480469 204.3125 C 335.308594 204.144531 335.160156 203.953125 335.019531 203.757812 C 334.949219 203.65625 334.894531 203.558594 334.859375 203.457031 L 335.046875 203.316406 C 335.082031 203.40625 335.152344 203.507812 335.253906 203.636719 C 335.304688 203.699219 335.355469 203.765625 335.417969 203.816406 C 336 204.300781 336.21875 204.933594 336.183594 205.679688 C 336.171875 205.867188 336.214844 206.058594 336.238281 206.242188 C 336.292969 206.628906 336.433594 206.984375 336.691406 207.261719 C 337.507812 208.148438 338.492188 208.59375 339.714844 208.371094 C 339.972656 208.328125 340.058594 208.140625 339.945312 207.890625 C 339.78125 207.539062 339.503906 207.289062 339.214844 207.042969 C 338.746094 206.640625 338.269531 206.246094 337.824219 205.820312 C 337.039062 205.078125 336.875 204.167969 337.167969 203.148438 C 337.25 202.867188 337.332031 202.578125 337.4375 202.304688 C 337.726562 201.546875 337.765625 200.785156 337.550781 200.003906 C 337.480469 199.746094 337.457031 199.46875 337.421875 199.199219 C 337.929688 200.125 338.03125 201.09375 337.730469 202.113281 C 337.617188 202.503906 337.542969 202.902344 337.457031 203.296875 C 337.273438 204.183594 337.488281 204.957031 338.121094 205.605469 C 338.589844 206.085938 339.0625 206.566406 339.550781 207.03125 C 340.171875 207.617188 340.183594 207.609375 340.464844 208.328125 C 341.113281 208.261719 341.777344 208.238281 342.398438 207.992188 C 342.371094 207.453125 342.351562 207.363281 342.117188 207.078125 C 341.925781 206.847656 341.714844 206.640625 341.503906 206.433594 C 341.140625 206.070312 340.757812 205.730469 340.414062 205.351562 C 340.09375 204.992188 339.792969 204.609375 339.523438 204.207031 C 339.1875 203.71875 339.082031 203.167969 339.253906 202.585938 C 339.410156 202.070312 339.539062 201.542969 339.753906 201.050781 C 340.199219 200.039062 340.6875 199.046875 341.167969 198.050781 C 341.535156 197.300781 341.890625 196.542969 342.121094 195.734375 C 342.15625 195.613281 342.226562 195.5 342.355469 195.226562 C 342.316406 195.875 342.175781 196.308594 342 196.730469 C 341.8125 197.179688 341.609375 197.617188 341.417969 198.066406 C 341.378906 198.15625 341.316406 198.261719 341.496094 198.359375 C 341.585938 198.296875 341.691406 198.222656 341.792969 198.148438 C 342.332031 197.757812 342.640625 197.253906 342.582031 196.5625 C 342.570312 196.402344 342.589844 196.238281 342.601562 196.078125 C 342.632812 195.472656 342.765625 194.90625 343.152344 194.417969 C 343.289062 194.25 343.398438 194.0625 343.496094 193.867188 C 343.960938 192.949219 343.851562 192.730469 343.21875 192.1875 C 343.175781 192.152344 343.136719 192.117188 343.09375 192.085938 C 342.734375 191.851562 342.625 191.523438 342.71875 191.105469 C 342.886719 190.378906 342.769531 189.664062 342.625 188.941406 C 342.414062 187.882812 342.21875 186.824219 342.363281 185.730469 C 342.4375 185.195312 342.269531 184.730469 341.890625 184.324219 C 341.617188 184.03125 341.402344 183.683594 341.167969 183.355469 C 341.097656 183.253906 341.09375 183.089844 340.90625 183.097656 C 340.65625 183.328125 340.410156 183.5625 340.160156 183.796875 C 340.339844 183.464844 340.515625 183.128906 340.714844 182.808594 C 340.917969 182.480469 341.066406 182.140625 341.101562 181.757812 C 341.113281 181.625 341.109375 181.488281 341.089844 181.355469 C 341.0625 181.175781 340.929688 181.058594 340.765625 181.042969 C 340.652344 181.027344 340.484375 181.070312 340.410156 181.15625 C 340.253906 181.332031 340.128906 181.542969 340.015625 181.757812 C 339.800781 182.160156 339.625 182.585938 339.402344 182.984375 C 339.066406 183.574219 338.835938 184.199219 338.679688 184.859375 C 338.386719 186.082031 337.796875 187.171875 337.09375 188.203125 C 337.164062 187.964844 337.21875 187.722656 337.316406 187.5 C 337.476562 187.128906 337.675781 186.777344 337.851562 186.410156 C 338.148438 185.800781 338.402344 185.171875 338.496094 184.496094 C 338.675781 183.21875 339.292969 182.160156 340.066406 181.171875 C 340.199219 181.003906 340.339844 180.84375 340.480469 180.679688 C 340.457031 180.5 340.449219 180.339844 340.417969 180.183594 C 340.171875 178.988281 339.972656 177.792969 339.949219 176.570312 C 339.941406 176.113281 339.867188 175.652344 339.816406 175.195312 C 339.804688 175.105469 339.8125 174.96875 339.605469 175.003906 C 339.566406 175.140625 339.511719 175.289062 339.480469 175.441406 C 339.234375 176.722656 338.835938 177.949219 338.207031 179.097656 C 337.933594 179.59375 337.675781 180.101562 337.433594 180.613281 C 337.097656 181.320312 336.765625 182.03125 336.453125 182.75 C 335.792969 184.273438 335.4375 185.878906 335.28125 187.53125 C 335.226562 188.121094 335.160156 188.714844 335.09375 189.304688 C 335.089844 189.328125 335.070312 189.351562 335.058594 189.375 C 335.046875 189.367188 335.03125 189.359375 335.019531 189.351562 C 334.859375 187.527344 335.234375 184.992188 335.886719 183.128906 C 336.351562 181.800781 336.964844 180.539062 337.644531 179.308594 C 338.496094 177.753906 339.058594 176.097656 339.371094 174.359375 C 339.480469 173.777344 339.507812 173.179688 339.515625 172.585938 C 339.527344 171.640625 339.492188 170.695312 339.472656 169.746094 C 339.472656 169.621094 339.5 169.472656 339.300781 169.382812 C 338.648438 169.609375 338.257812 170.265625 337.472656 170.675781 C 338.3125 169.761719 339.035156 169 339.734375 168.214844 C 340.578125 167.257812 340.84375 166.140625 340.554688 164.894531 C 340.453125 164.445312 340.351562 164 340.246094 163.550781 C 340.105469 162.960938 340.144531 162.371094 340.226562 161.777344 C 340.265625 161.5 340.382812 161.277344 340.605469 161.09375 C 341.171875 160.636719 341.726562 160.167969 342.277344 159.691406 C 343.433594 158.679688 344.59375 157.671875 345.730469 156.640625 C 346.429688 156.003906 347.0625 155.300781 347.519531 154.460938 C 347.539062 154.425781 347.601562 154.417969 347.703125 154.367188 C 347.714844 154.710938 347.71875 155.03125 347.742188 155.347656 C 347.765625 155.695312 347.765625 156.050781 347.847656 156.386719 C 347.929688 156.738281 347.957031 157.074219 347.878906 157.425781 C 347.777344 157.898438 347.675781 158.375 347.574219 158.851562 C 347.441406 159.472656 347.421875 160.082031 347.726562 160.667969 C 347.78125 160.777344 347.789062 160.910156 347.816406 161.015625 C 347.304688 161.273438 346.832031 161.417969 346.308594 161.253906 C 346.285156 161.246094 346.257812 161.242188 346.226562 161.242188 C 345.785156 161.214844 345.511719 161.4375 345.441406 161.875 C 345.390625 162.207031 345.464844 162.523438 345.597656 162.824219 C 345.703125 163.066406 345.816406 163.308594 345.921875 163.542969 C 345.75 163.828125 345.605469 164.082031 345.359375 164.234375 C 345.191406 164.136719 345.039062 164.085938 344.933594 163.984375 C 344.824219 163.878906 344.761719 163.722656 344.671875 163.59375 C 344.628906 163.53125 344.566406 163.472656 344.507812 163.421875 C 344.378906 163.3125 344.167969 163.34375 344.078125 163.472656 C 343.816406 163.855469 343.847656 164.351562 344.167969 164.660156 C 344.320312 164.804688 344.507812 164.914062 344.664062 165.035156 C 344.671875 165.707031 342.601562 179.066406 342.414062 179.625 C 342.316406 179.636719 342.210938 179.644531 342.105469 179.664062 C 342.007812 179.683594 341.882812 179.664062 341.863281 179.8125 C 342.375 181.171875 343.613281 181.953125 345.234375 181.945312 C 346.949219 181.941406 348.292969 181.101562 348.820312 179.714844 C 348.316406 179.457031 348.316406 179.457031 348.203125 178.914062 C 348.074219 178.277344 347.941406 177.644531 347.808594 177.011719 C 347.042969 173.28125 346.277344 169.550781 345.515625 165.820312 C 345.46875 165.585938 345.464844 165.34375 345.4375 165.082031 C 346.019531 164.832031 346.304688 164.347656 346.582031 163.84375 C 346.761719 163.515625 346.960938 163.1875 347.191406 162.890625 C 347.75 162.152344 347.984375 162.101562 348.847656 162.496094 C 348.917969 162.449219 349.003906 162.390625 349.09375 162.339844 C 349.460938 162.125 349.605469 162.121094 349.867188 162.421875 C 350.09375 162.683594 350.289062 162.976562 350.480469 163.269531 C 350.699219 163.609375 350.863281 163.988281 351.105469 164.308594 C 351.359375 164.644531 351.675781 164.9375 351.984375 165.269531 C 351.804688 166.425781 351.617188 167.601562 351.4375 168.777344 C 350.9375 172.089844 350.4375 175.402344 349.929688 178.710938 C 349.890625 178.972656 349.894531 179.253906 349.703125 179.46875 C 349.617188 179.480469 349.535156 179.488281 349.457031 179.503906 C 349.363281 179.527344 349.269531 179.554688 349.171875 179.585938 C 349.441406 180.421875 349.945312 181.035156 350.726562 181.378906 C 352.125 181.996094 353.503906 181.925781 354.824219 181.152344 C 355.4375 180.789062 355.894531 180.269531 356.171875 179.554688 C 355.96875 179.464844 355.808594 179.390625 355.617188 179.304688 C 355.136719 176.945312 354.65625 174.59375 354.175781 172.238281 C 353.691406 169.863281 353.183594 167.488281 352.726562 165.117188 C 352.988281 164.851562 353.234375 164.640625 353.222656 164.269531 C 353.210938 163.917969 353.113281 163.640625 352.75 163.484375 C 352.527344 163.652344 352.320312 163.808594 352.097656 163.976562 C 351.839844 163.804688 351.722656 163.589844 351.738281 163.289062 C 351.75 162.9375 351.757812 162.585938 351.738281 162.234375 C 351.722656 161.921875 351.59375 161.625 351.28125 161.53125 C 350.929688 161.425781 350.554688 161.363281 350.1875 161.351562 C 349.648438 161.332031 349.566406 161.285156 349.714844 160.746094 C 349.90625 160.058594 349.816406 159.40625 349.589844 158.757812 C 349.503906 158.503906 349.382812 158.257812 349.289062 158.007812 C 349.164062 157.679688 349.039062 157.351562 348.9375 157.015625 C 348.894531 156.863281 348.851562 156.675781 348.90625 156.542969 C 349.09375 156.066406 349.054688 155.589844 348.976562 155.105469 C 348.949219 154.925781 348.992188 154.734375 349.023438 154.550781 C 349.066406 154.328125 349.0625 154.125 348.925781 153.933594 C 348.667969 153.574219 348.648438 153.195312 348.8125 152.785156 C 348.914062 152.527344 348.949219 152.246094 348.765625 152.007812 C 348.585938 151.777344 348.65625 151.550781 348.722656 151.316406 C 348.902344 150.691406 349.113281 150.078125 349.261719 149.449219 C 349.511719 148.394531 349.652344 147.324219 349.539062 146.234375 C 349.476562 145.621094 349.261719 145.140625 348.648438 144.914062 C 348.609375 144.898438 348.585938 144.832031 348.601562 144.851562 C 348.363281 144.289062 348.851562 144.023438 348.988281 143.65625 C 348.832031 143.492188 348.636719 143.386719 348.589844 143.230469 C 348.453125 142.789062 348.097656 142.542969 347.859375 142.1875 C 347.335938 142.6875 347.199219 142.847656 347.082031 143.316406 C 347.027344 143.539062 346.957031 143.710938 346.773438 143.851562 C 346.679688 143.925781 346.628906 144.058594 346.539062 144.195312 C 346.75 144.371094 346.929688 144.523438 347.113281 144.675781 C 346.988281 144.765625 346.867188 144.855469 346.761719 144.933594 C 346.796875 145.207031 347.152344 145.316406 347 145.613281 C 347.234375 146.332031 347.140625 147.132812 347.539062 147.816406 C 347.566406 147.859375 347.5625 147.921875 347.566406 147.972656 C 347.617188 148.839844 347.667969 149.699219 347.710938 150.5625 C 347.710938 150.597656 347.648438 150.636719 347.621094 150.664062 C 347.546875 150.535156 347.472656 150.398438 347.359375 150.199219 C 347.246094 150.363281 347.175781 150.46875 347.101562 150.570312 C 346.785156 151.007812 346.488281 151.457031 346.15625 151.882812 C 345.703125 152.457031 345.261719 153.03125 344.933594 153.6875 C 344.699219 154.15625 344.363281 154.542969 343.941406 154.847656 C 342.613281 155.808594 341.28125 156.765625 339.953125 157.71875 C 339.902344 157.703125 339.855469 157.683594 339.804688 157.667969 C 339.382812 157.542969 339.160156 157.703125 339.21875 158.105469 C 339.25 158.320312 339.34375 158.53125 339.25 158.832031 C 339.199219 158.671875 339.1875 158.589844 339.148438 158.519531 C 339.027344 158.324219 339.0625 157.953125 338.761719 157.96875 C 338.410156 157.984375 338.523438 158.367188 338.464844 158.621094 C 338.359375 158.496094 338.28125 158.402344 338.167969 158.277344 C 337.710938 158.574219 337.324219 158.894531 337.011719 159.308594 C 336.933594 159.414062 336.855469 159.535156 336.691406 159.488281 C 336.550781 159.3125 336.359375 159.378906 336.183594 159.394531 C 335.867188 159.425781 335.554688 159.472656 335.210938 159.511719 C 335.019531 158.980469 334.84375 158.484375 334.683594 158.039062 C 335.023438 157.910156 335.375 157.792969 335.714844 157.640625 C 335.90625 157.558594 335.972656 157.371094 335.925781 157.164062 C 335.878906 156.953125 335.765625 156.742188 335.78125 156.539062 C 335.820312 156.011719 335.664062 155.527344 335.542969 155.042969 C 335.632812 154.898438 335.714844 154.765625 335.8125 154.605469 C 335.597656 154.355469 335.390625 154.121094 335.230469 153.9375 C 335.277344 153.667969 335.378906 153.449219 335.339844 153.261719 C 335.28125 152.984375 335.125 152.726562 334.996094 152.464844 C 334.984375 152.433594 334.898438 152.441406 334.847656 152.429688 C 334.824219 152.421875 334.804688 152.414062 334.78125 152.410156 C 334.808594 152.414062 334.835938 152.417969 334.863281 152.425781 C 334.824219 152.246094 334.796875 152.066406 334.742188 151.890625 C 334.660156 151.625 334.460938 151.570312 334.222656 151.589844 C 334.21875 151.589844 334.214844 151.585938 334.210938 151.582031 C 334.457031 151.316406 334.945312 151.445312 335.125 150.992188 C 334.972656 150.671875 334.816406 150.335938 334.332031 150.394531 C 334.289062 150.398438 334.210938 150.367188 334.203125 150.335938 C 334.03125 149.808594 333.515625 149.773438 333.121094 149.574219 C 332.960938 149.496094 332.710938 149.414062 332.585938 149.484375 C 332.160156 149.726562 331.703125 149.59375 331.265625 149.667969 C 330.679688 149.765625 330.175781 149.980469 329.960938 150.640625 C 329.867188 150.554688 329.8125 150.46875 329.757812 150.464844 C 329.664062 150.464844 329.566406 150.511719 329.476562 150.554688 C 329.429688 150.574219 329.386719 150.621094 329.367188 150.667969 C 329.144531 151.210938 328.738281 151.597656 328.28125 151.941406 C 328.21875 151.988281 328.167969 152.058594 328.113281 152.117188 C 327.917969 152.335938 327.839844 152.570312 327.972656 152.859375 C 328.074219 153.078125 328.128906 153.324219 328.25 153.53125 C 328.363281 153.726562 328.535156 153.886719 328.753906 154.148438 C 328.460938 154.058594 328.273438 154.003906 328.105469 153.953125 C 327.792969 154.28125 327.914062 154.582031 328.089844 154.871094 C 328.320312 155.257812 328.5625 155.636719 328.8125 156.015625 C 328.863281 156.097656 328.945312 156.15625 329.058594 156.265625 C 329.148438 156.148438 329.210938 156.0625 329.300781 155.945312 C 329.375 156.078125 329.480469 156.1875 329.492188 156.304688 C 329.523438 156.59375 329.515625 156.882812 329.511719 157.171875 C 329.511719 157.25 329.464844 157.328125 329.429688 157.398438 C 329.296875 157.664062 329.117188 157.914062 329.042969 158.191406 C 328.957031 158.539062 329.359375 158.738281 329.414062 159.046875 C 329.359375 159.230469 329.28125 159.363281 329.070312 159.292969 C 328.996094 159.265625 328.925781 159.210938 328.851562 159.195312 C 328.644531 159.144531 328.484375 159.285156 328.488281 159.5 C 328.496094 159.765625 328.621094 159.960938 328.886719 160.042969 C 329.058594 160.097656 329.242188 160.097656 329.402344 160.117188 C 329.5 160.304688 329.585938 160.46875 329.671875 160.632812 C 329.597656 161.089844 329.359375 161.425781 328.949219 161.640625 C 328.804688 161.714844 328.679688 161.820312 328.542969 161.90625 C 327.699219 162.453125 327.097656 163.1875 326.78125 164.152344 C 326.597656 164.71875 326.394531 165.277344 326.214844 165.84375 C 325.921875 166.773438 325.558594 167.671875 325.121094 168.542969 C 324.445312 169.894531 323.800781 171.261719 323.152344 172.625 C 322.699219 173.582031 322.378906 174.585938 322.175781 175.621094 C 321.976562 176.65625 321.789062 177.695312 321.550781 178.71875 C 321.390625 179.398438 321.152344 180.0625 320.945312 180.734375 C 320.90625 180.859375 320.84375 180.984375 320.628906 180.925781 C 320.570312 180.597656 320.496094 180.257812 320.457031 179.914062 C 320.425781 179.644531 320.304688 179.460938 320.070312 179.339844 C 319.777344 179.1875 319.464844 179.09375 319.140625 179.132812 C 318.996094 179.152344 318.820312 179.242188 318.738281 179.355469 C 318.449219 179.773438 318.59375 180.476562 319.007812 180.800781 C 319.386719 181.097656 319.761719 181.398438 319.96875 181.855469 C 319.925781 181.941406 319.90625 182.027344 319.855469 182.082031 C 319.554688 182.394531 319.539062 182.734375 319.699219 183.128906 C 319.957031 183.78125 320.203125 184.441406 320.710938 184.953125 C 320.738281 184.984375 320.734375 185.054688 320.75 185.136719 C 320.296875 185.582031 319.6875 185.917969 319.394531 186.683594 C 320.097656 186.542969 320.691406 186.214844 321.339844 186.367188 C 321.621094 186.578125 321.902344 186.785156 322.171875 187.003906 C 322.292969 187.105469 322.472656 187.226562 322.488281 187.355469 C 322.542969 187.78125 322.839844 188.0625 323.078125 188.398438 C 322.828125 188.878906 323 189.273438 323.234375 189.699219 C 325.371094 193.546875 327.492188 197.398438 329.613281 201.257812 C 329.722656 201.460938 329.808594 201.679688 329.894531 201.894531 C 329.882812 201.902344 329.871094 201.910156 329.863281 201.917969 C 329.660156 201.691406 329.453125 201.457031 329.222656 201.195312 C 328.90625 201.40625 328.59375 201.570312 328.332031 201.789062 C 327.871094 202.175781 327.832031 202.492188 328.222656 202.96875 C 328.476562 203.273438 328.519531 203.585938 328.484375 203.945312 C 328.402344 204.726562 328.140625 205.414062 327.480469 205.898438 C 327.351562 205.992188 327.234375 206.109375 327.125 206.230469 C 327.003906 206.363281 326.980469 206.53125 327.070312 206.679688 C 327.195312 206.886719 327.339844 207.082031 327.5 207.261719 C 327.804688 207.605469 328.148438 207.914062 328.4375 208.269531 C 328.675781 208.558594 328.875 208.878906 329.066406 209.207031 C 329.15625 209.363281 329.214844 209.558594 329.046875 209.765625 C 328.917969 209.789062 328.765625 209.828125 328.605469 209.847656 C 328.101562 209.917969 327.59375 209.980469 327.085938 210.046875 C 326.554688 210.121094 326.019531 210.179688 325.492188 210.277344 C 325.003906 210.363281 324.523438 210.492188 324.007812 210.605469 C 323.992188 210.832031 323.964844 211.042969 323.960938 211.253906 C 323.957031 211.875 323.964844 212.496094 323.957031 213.117188 C 323.953125 213.296875 323.910156 213.476562 323.878906 213.683594 C 323.09375 213.730469 322.34375 213.757812 321.597656 213.824219 C 320.835938 213.894531 320.058594 213.875 319.117188 214.246094 C 319.324219 214.320312 319.398438 214.355469 319.476562 214.371094 C 319.898438 214.441406 320.324219 214.523438 320.75 214.574219 C 322.113281 214.738281 323.484375 214.753906 324.855469 214.75 C 326.476562 214.738281 328.078125 214.878906 329.652344 215.273438 C 330.136719 215.394531 330.65625 215.390625 331.253906 215.675781 C 330.871094 215.675781 330.636719 215.675781 330.398438 215.675781 C 327.519531 215.675781 324.644531 215.671875 321.765625 215.675781 C 318.808594 215.679688 315.851562 215.675781 312.890625 215.699219 C 311.277344 215.714844 309.664062 215.792969 308.066406 216.003906 C 307.832031 216.03125 307.570312 216.007812 307.398438 216.296875 C 307.609375 216.363281 307.808594 216.453125 308.007812 216.480469 C 308.542969 216.558594 309.074219 216.640625 309.613281 216.660156 C 311.441406 216.730469 313.265625 216.820312 315.09375 216.824219 C 330.179688 216.835938 345.265625 216.835938 360.347656 216.820312 C 361.988281 216.820312 363.628906 216.722656 365.265625 216.652344 C 365.773438 216.632812 366.28125 216.558594 366.789062 216.488281 C 366.992188 216.457031 367.1875 216.367188 367.398438 216.304688 C 367.234375 215.984375 366.972656 216.015625 366.738281 215.992188 Z M 336.878906 188.683594 Z M 337.046875 188.269531 C 337.007812 188.363281 336.96875 188.453125 336.929688 188.546875 C 336.933594 188.441406 336.941406 188.332031 337.046875 188.269531 Z M 345.183594 179.640625 C 344.476562 179.640625 343.804688 179.644531 343.140625 179.640625 C 343.035156 179.636719 342.933594 179.605469 342.777344 179.574219 C 343.394531 175.265625 344.109375 170.992188 344.738281 166.707031 C 344.761719 166.53125 344.800781 166.351562 344.945312 166.03125 C 345.058594 170.574219 345.167969 174.9375 345.269531 179.304688 C 345.273438 179.382812 345.234375 179.457031 345.183594 179.640625 Z M 347.992188 179.265625 C 348.007812 179.335938 347.96875 179.417969 347.957031 179.492188 C 347.382812 179.632812 346.609375 179.652344 345.675781 179.550781 C 345.640625 179.421875 345.582031 179.277344 345.566406 179.128906 C 345.539062 178.886719 345.535156 178.644531 345.53125 178.402344 C 345.449219 175.003906 345.367188 171.605469 345.28125 168.210938 C 345.265625 167.59375 345.242188 166.976562 345.21875 166.351562 C 345.265625 166.367188 345.304688 166.371094 345.308594 166.382812 C 346.207031 170.675781 347.101562 174.96875 347.992188 179.265625 Z M 352.558594 166.324219 C 352.597656 166.320312 352.636719 166.316406 352.671875 166.3125 C 352.699219 166.433594 352.734375 166.558594 352.757812 166.679688 C 353.601562 170.800781 354.445312 174.921875 355.285156 179.042969 C 355.300781 179.117188 355.277344 179.199219 355.269531 179.335938 C 354.519531 179.574219 353.757812 179.398438 352.957031 179.46875 C 352.925781 179.203125 352.886719 179.027344 352.878906 178.847656 C 352.820312 176.769531 352.765625 174.691406 352.710938 172.613281 C 352.660156 170.722656 352.609375 168.835938 352.5625 166.945312 C 352.554688 166.738281 352.558594 166.53125 352.558594 166.324219 Z M 352.199219 166.191406 C 352.222656 166.359375 352.253906 166.523438 352.261719 166.6875 C 352.300781 167.902344 352.34375 169.117188 352.375 170.332031 C 352.445312 173.058594 352.507812 175.785156 352.570312 178.507812 C 352.578125 178.800781 352.632812 179.097656 352.507812 179.367188 C 351.898438 179.5 350.972656 179.523438 350.144531 179.429688 C 350.046875 179.179688 350.136719 178.914062 350.175781 178.660156 C 350.347656 177.515625 350.542969 176.371094 350.71875 175.222656 C 351.074219 172.933594 351.421875 170.640625 351.777344 168.347656 C 351.886719 167.628906 352.003906 166.914062 352.199219 166.191406 Z M 325.285156 210.753906 L 325.292969 210.714844 L 325.34375 210.738281 Z M 334.769531 207.921875 C 334.3125 207.011719 333.859375 206.101562 333.457031 205.300781 C 333.59375 203.367188 333.71875 201.546875 333.855469 199.539062 C 333.988281 199.796875 334.0625 199.886719 334.078125 199.992188 C 334.21875 200.867188 334.382812 201.738281 334.171875 202.636719 C 333.964844 203.542969 334.023438 204.453125 334.265625 205.351562 C 334.425781 205.949219 334.558594 206.554688 334.707031 207.15625 C 334.769531 207.410156 334.859375 207.660156 334.769531 207.921875 Z M 334.109375 193.527344 C 334.082031 193.542969 334.058594 193.558594 334.035156 193.574219 C 334.027344 193.539062 334.023438 193.5 334.019531 193.464844 C 334.050781 193.484375 334.078125 193.507812 334.109375 193.527344 Z M 325.324219 188.710938 C 325.164062 188.355469 324.980469 188.042969 324.632812 187.847656 C 324.386719 187.707031 324.230469 187.519531 324.195312 187.214844 C 324.175781 187.039062 324.070312 186.855469 323.957031 186.710938 C 323.285156 185.855469 323.886719 184.496094 324.988281 184.511719 C 325.035156 184.511719 325.085938 184.476562 325.132812 184.457031 C 324.949219 183.898438 324.511719 183.621094 323.988281 183.792969 C 323.636719 183.90625 323.308594 184.101562 322.941406 184.277344 C 322.851562 184.210938 322.757812 184.113281 322.640625 184.054688 C 322.527344 184 322.394531 183.980469 322.230469 183.9375 C 322.609375 183.6875 322.707031 183.316406 322.699219 182.929688 C 322.671875 181.882812 322.988281 180.90625 323.285156 179.921875 C 323.789062 178.238281 324.382812 176.589844 325.074219 174.972656 C 325.394531 174.230469 325.628906 173.449219 325.933594 172.703125 C 326.167969 172.125 326.40625 171.550781 326.714844 171.011719 C 327.488281 169.652344 328.296875 168.3125 329.097656 166.964844 C 329.136719 166.898438 329.199219 166.839844 329.28125 166.738281 C 329.726562 167.085938 330.054688 167.464844 329.917969 168.097656 C 329.800781 168.128906 329.648438 168.121094 329.570312 168.195312 C 329.488281 168.277344 329.445312 168.429688 329.4375 168.554688 C 329.421875 168.871094 329.578125 169.140625 329.796875 169.34375 C 330.128906 169.65625 330.242188 170.003906 330.113281 170.441406 C 330.078125 170.570312 330.070312 170.707031 330.0625 170.839844 C 330.039062 171.203125 330.164062 171.300781 330.558594 171.222656 C 330.636719 171.207031 330.710938 171.175781 330.796875 171.144531 C 331.074219 171.59375 331.019531 172.046875 330.878906 172.519531 C 330.273438 174.59375 329.75 176.691406 329.386719 178.824219 C 329.289062 179.382812 329.214844 179.945312 329.152344 180.507812 C 329.003906 181.84375 329.171875 183.152344 329.535156 184.4375 C 330.226562 186.871094 331.21875 189.167969 332.679688 191.246094 C 333.035156 191.753906 333.378906 192.269531 333.710938 192.792969 C 333.828125 192.980469 333.894531 193.195312 333.980469 193.402344 C 333.828125 193.242188 333.675781 193.085938 333.527344 192.925781 C 333.457031 192.84375 333.394531 192.753906 333.320312 192.675781 C 331.710938 191.09375 330.734375 189.117188 329.839844 187.082031 C 329.734375 186.847656 329.707031 186.5625 329.394531 186.351562 C 329.375 186.503906 329.355469 186.597656 329.355469 186.6875 C 329.367188 188.101562 329.539062 189.480469 330.03125 190.820312 C 330.394531 191.808594 330.664062 192.828125 330.96875 193.832031 C 331.226562 194.675781 331.246094 195.523438 331.046875 196.386719 C 330.882812 197.097656 330.785156 197.820312 330.648438 198.535156 C 330.582031 198.894531 330.625 199.226562 330.792969 199.554688 C 331.007812 199.972656 331.210938 200.398438 331.402344 200.828125 C 331.355469 200.859375 331.3125 200.894531 331.261719 200.925781 C 329.246094 196.871094 327.195312 192.835938 325.324219 188.710938 Z M 337.917969 212.101562 C 337.710938 212.089844 337.507812 212.101562 337.203125 212.101562 C 337.382812 212.410156 337.554688 212.617188 337.636719 212.859375 C 337.648438 212.898438 337.660156 212.941406 337.667969 212.980469 L 337.367188 213.054688 C 337.148438 212.683594 336.988281 212.277344 336.820312 211.859375 C 337.1875 211.769531 337.503906 211.84375 337.816406 211.882812 C 338.273438 211.945312 338.71875 211.933594 339.175781 211.839844 C 341.226562 211.421875 343.28125 211.019531 345.335938 210.605469 C 345.492188 210.574219 345.648438 210.527344 345.804688 210.488281 C 345.925781 210.457031 346.039062 210.359375 346.1875 210.414062 C 346.109375 210.710938 345.855469 210.691406 345.671875 210.738281 C 345.125 210.871094 344.570312 210.976562 344.015625 211.085938 C 342.570312 211.378906 341.117188 211.652344 339.675781 211.96875 C 339.089844 212.097656 338.511719 212.140625 337.917969 212.101562 Z M 337.917969 212.101562 " fill-opacity="1" fill-rule="nonzero"/></g><path fill="#010111" d="M 352.230469 217.808594 C 350.566406 217.738281 348.898438 217.703125 347.230469 217.699219 C 340.617188 217.6875 334.003906 217.6875 327.390625 217.699219 C 325.132812 217.703125 322.875 217.734375 320.621094 217.941406 C 320.171875 217.980469 319.730469 218.042969 319.304688 218.1875 C 319.335938 218.445312 319.511719 218.457031 319.664062 218.46875 C 320.734375 218.574219 321.800781 218.722656 322.875 218.757812 C 324.835938 218.824219 326.796875 218.832031 328.761719 218.835938 C 333.222656 218.847656 337.6875 218.851562 342.148438 218.839844 C 345.347656 218.832031 348.546875 218.808594 351.746094 218.769531 C 352.902344 218.753906 354.054688 218.671875 355.195312 218.464844 C 355.320312 218.441406 355.46875 218.441406 355.527344 218.171875 C 355.371094 218.132812 355.246094 218.085938 355.117188 218.070312 C 354.15625 217.976562 353.195312 217.847656 352.230469 217.808594 Z M 352.230469 217.808594 " fill-opacity="1" fill-rule="nonzero"/><g clip-path="url(#d899daa568)"><path fill="#010111" d="M 342.777344 219.902344 C 339.1875 219.660156 335.597656 219.671875 332.003906 219.90625 C 331.582031 219.933594 331.160156 220.027344 330.738281 220.105469 C 330.675781 220.117188 330.582031 220.222656 330.589844 220.269531 C 330.601562 220.359375 330.667969 220.492188 330.738281 220.511719 C 331.074219 220.59375 331.414062 220.683594 331.761719 220.707031 C 332.9375 220.777344 334.117188 220.851562 335.292969 220.875 C 336.714844 220.90625 338.136719 220.90625 339.558594 220.875 C 340.738281 220.851562 341.914062 220.773438 343.09375 220.703125 C 343.386719 220.6875 343.675781 220.625 343.964844 220.554688 C 344.078125 220.523438 344.175781 220.417969 344.328125 220.316406 C 344.179688 220.210938 344.082031 220.09375 343.96875 220.074219 C 343.578125 219.996094 343.179688 219.933594 342.777344 219.902344 Z M 342.777344 219.902344 " fill-opacity="1" fill-rule="nonzero"/></g><g fill="#5271ff" fill-opacity="1"><g transform="translate(115.731743, 212.885769)"><g><path d="M 11.34375 -47.171875 C 9.4375 -47.171875 7.882812 -47.75 6.6875 -48.90625 C 5.488281 -50.070312 4.890625 -51.570312 4.890625 -53.40625 C 4.890625 -55.207031 5.488281 -56.6875 6.6875 -57.84375 C 7.882812 -59.007812 9.4375 -59.59375 11.34375 -59.59375 C 12.613281 -59.59375 13.742188 -59.320312 14.734375 -58.78125 C 15.734375 -58.25 16.503906 -57.519531 17.046875 -56.59375 C 17.597656 -55.664062 17.875 -54.601562 17.875 -53.40625 C 17.875 -52.207031 17.597656 -51.132812 17.046875 -50.1875 C 16.503906 -49.25 15.734375 -48.507812 14.734375 -47.96875 C 13.742188 -47.4375 12.613281 -47.171875 11.34375 -47.171875 Z M 3.28125 17.875 C 0.175781 17.875 -2.316406 17.46875 -4.203125 16.65625 L -2.90625 8.328125 L -2.171875 8.09375 C -1.160156 8.582031 0.03125 8.828125 1.40625 8.828125 C 4.519531 8.828125 6.078125 6.992188 6.078125 3.328125 L 6.078125 -42.140625 L 16.65625 -42.140625 L 16.65625 3.015625 C 16.65625 7.929688 15.519531 11.632812 13.25 14.125 C 10.988281 16.625 7.664062 17.875 3.28125 17.875 Z M 3.28125 17.875 "/></g></g></g><g fill="#5271ff" fill-opacity="1"><g transform="translate(138.421733, 212.885769)"><g><path d="M 19.296875 0.796875 C 14.554688 0.796875 11.054688 -0.492188 8.796875 -3.078125 C 6.546875 -5.660156 5.421875 -9.367188 5.421875 -14.203125 L 5.421875 -42.140625 L 16 -42.140625 L 16 -15.546875 C 16 -12.972656 16.550781 -11.09375 17.65625 -9.90625 C 18.769531 -8.726562 20.488281 -8.140625 22.8125 -8.140625 C 25.738281 -8.140625 28.015625 -9.097656 29.640625 -11.015625 C 31.273438 -12.941406 32.09375 -15.96875 32.09375 -20.09375 L 32.09375 -42.140625 L 42.671875 -42.140625 L 42.671875 0 L 32.515625 0 L 32.515625 -6.1875 L 31.703125 -6.375 C 30.359375 -3.957031 28.710938 -2.15625 26.765625 -0.96875 C 24.816406 0.207031 22.328125 0.796875 19.296875 0.796875 Z M 19.296875 0.796875 "/></g></g></g><g fill="#5271ff" fill-opacity="1"><g transform="translate(187.163193, 212.885769)"><g><path d="M 19.71875 0.796875 C 16.832031 0.796875 14.191406 0.460938 11.796875 -0.203125 C 9.410156 -0.878906 7.367188 -1.8125 5.671875 -3 C 3.972656 -4.1875 2.71875 -5.539062 1.90625 -7.0625 L 7.796875 -13.40625 L 8.59375 -13.40625 C 10 -11.519531 11.65625 -10.101562 13.5625 -9.15625 C 15.46875 -8.21875 17.539062 -7.75 19.78125 -7.75 C 21.84375 -7.75 23.394531 -8.117188 24.4375 -8.859375 C 25.488281 -9.597656 26.015625 -10.65625 26.015625 -12.03125 C 26.015625 -13.101562 25.640625 -14 24.890625 -14.71875 C 24.140625 -15.445312 22.921875 -16.015625 21.234375 -16.421875 L 15.65625 -17.765625 C 11.476562 -18.753906 8.425781 -20.273438 6.5 -22.328125 C 4.582031 -24.378906 3.625 -26.984375 3.625 -30.140625 C 3.625 -32.765625 4.289062 -35.039062 5.625 -36.96875 C 6.96875 -38.90625 8.851562 -40.382812 11.28125 -41.40625 C 13.71875 -42.425781 16.550781 -42.9375 19.78125 -42.9375 C 23.582031 -42.9375 26.726562 -42.390625 29.21875 -41.296875 C 31.71875 -40.203125 33.664062 -38.738281 35.0625 -36.90625 L 29.421875 -30.796875 L 28.65625 -30.796875 C 27.476562 -32.117188 26.15625 -33.082031 24.6875 -33.6875 C 23.226562 -34.300781 21.59375 -34.609375 19.78125 -34.609375 C 15.601562 -34.609375 13.515625 -33.3125 13.515625 -30.71875 C 13.515625 -29.625 13.90625 -28.726562 14.6875 -28.03125 C 15.46875 -27.34375 16.835938 -26.785156 18.796875 -26.359375 L 23.984375 -25.21875 C 28.265625 -24.300781 31.390625 -22.828125 33.359375 -20.796875 C 35.335938 -18.773438 36.328125 -16.054688 36.328125 -12.640625 C 36.328125 -9.972656 35.664062 -7.617188 34.34375 -5.578125 C 33.019531 -3.535156 31.109375 -1.960938 28.609375 -0.859375 C 26.117188 0.242188 23.15625 0.796875 19.71875 0.796875 Z M 19.71875 0.796875 "/></g></g></g><g fill="#5271ff" fill-opacity="1"><g transform="translate(226.011213, 212.885769)"><g><path d="M 29.078125 -10.046875 L 31.828125 -2.21875 C 30.679688 -1.269531 29.238281 -0.53125 27.5 0 C 25.769531 0.53125 23.8125 0.796875 21.625 0.796875 C 17.0625 0.796875 13.59375 -0.441406 11.21875 -2.921875 C 8.851562 -5.398438 7.671875 -9.007812 7.671875 -13.75 L 7.671875 -33.765625 L 1.265625 -33.765625 L 1.265625 -42.171875 L 7.671875 -42.171875 L 7.671875 -50.390625 L 18.265625 -52.109375 L 18.265625 -42.171875 L 30.21875 -42.171875 L 30.21875 -33.765625 L 18.265625 -33.765625 L 18.265625 -14.515625 C 18.265625 -12.429688 18.695312 -10.910156 19.5625 -9.953125 C 20.425781 -8.992188 21.6875 -8.515625 23.34375 -8.515625 C 25.226562 -8.515625 26.867188 -9.023438 28.265625 -10.046875 Z M 29.078125 -10.046875 "/></g></g></g><g fill="#5271ff" fill-opacity="1"><g transform="translate(258.74745, 212.885769)"><g><path d="M 11.34375 -47.171875 C 9.4375 -47.171875 7.882812 -47.75 6.6875 -48.90625 C 5.488281 -50.070312 4.890625 -51.570312 4.890625 -53.40625 C 4.890625 -55.207031 5.488281 -56.6875 6.6875 -57.84375 C 7.882812 -59.007812 9.4375 -59.59375 11.34375 -59.59375 C 12.613281 -59.59375 13.742188 -59.320312 14.734375 -58.78125 C 15.734375 -58.25 16.503906 -57.519531 17.046875 -56.59375 C 17.597656 -55.664062 17.875 -54.601562 17.875 -53.40625 C 17.875 -52.207031 17.597656 -51.132812 17.046875 -50.1875 C 16.503906 -49.25 15.734375 -48.507812 14.734375 -47.96875 C 13.742188 -47.4375 12.613281 -47.171875 11.34375 -47.171875 Z M 6.078125 0 L 6.078125 -42.140625 L 16.65625 -42.140625 L 16.65625 0 Z M 6.078125 0 "/></g></g></g><g fill="#0cc0df" fill-opacity="1"><g transform="translate(281.448047, 212.885769)"><g><path d="M 7.375 0 L 7.375 -33.765625 L 1.40625 -33.765625 L 1.40625 -42.171875 L 7.375 -42.171875 C 6.9375 -43.953125 6.71875 -45.617188 6.71875 -47.171875 C 6.71875 -49.847656 7.328125 -52.132812 8.546875 -54.03125 C 9.773438 -55.925781 11.535156 -57.367188 13.828125 -58.359375 C 16.117188 -59.359375 18.84375 -59.859375 22 -59.859375 C 26.664062 -59.859375 30.144531 -59.054688 32.4375 -57.453125 L 29.953125 -49.65625 L 29.140625 -49.5 C 27.566406 -50.625 25.546875 -51.1875 23.078125 -51.1875 C 21.160156 -51.1875 19.722656 -50.722656 18.765625 -49.796875 C 17.816406 -48.867188 17.34375 -47.601562 17.34375 -46 C 17.34375 -45.3125 17.382812 -44.679688 17.46875 -44.109375 C 17.5625 -43.535156 17.722656 -42.890625 17.953125 -42.171875 L 29.984375 -42.171875 L 29.984375 -33.765625 L 17.953125 -33.765625 L 17.953125 0 Z M 7.375 0 "/></g></g></g></svg>